G04 PROTEUS GERBER X2 FILE*
%TF.GenerationSoftware,Labcenter,Proteus,8.12-SP0-Build30713*%
%TF.CreationDate,2026-02-27T05:48:41+00:00*%
%TF.FileFunction,AssemblyDrawing,Top*%
%TF.FilePolarity,Positive*%
%TF.Part,Single*%
%TF.SameCoordinates,{c3d214fe-1525-466a-9aad-c1a0e93b99cd}*%
%FSLAX45Y45*%
%MOMM*%
G01*
%TA.AperFunction,Profile*%
%ADD22C,0.203200*%
%TA.AperFunction,Material*%
%ADD23C,0.203200*%
%ADD36C,0.508000*%
%ADD37C,0.827120*%
%ADD38C,0.622300*%
%ADD39C,0.812800*%
%ADD40C,0.355600*%
%ADD41C,0.237060*%
%ADD42C,0.177800*%
%ADD43C,0.711200*%
%ADD44C,0.110230*%
%ADD45C,0.609600*%
%ADD46C,0.168480*%
%ADD47C,0.082550*%
%ADD48C,0.050000*%
%ADD49C,0.721360*%
%ADD50C,0.084660*%
%TD.AperFunction*%
D22*
X-3100000Y-11320000D02*
X+3450000Y-11320000D01*
X+3450000Y-5930000D01*
X-3100000Y-5930000D01*
X-3100000Y-11320000D01*
D23*
X-2637160Y-9363500D02*
X+2463160Y-9363500D01*
X+2463160Y-7712500D01*
X-2637160Y-7712500D01*
X-2637160Y-9363500D01*
D36*
X-2500000Y-9300000D02*
X-2500000Y-9300000D01*
D37*
X-750132Y-8289862D02*
X-750132Y-8703425D01*
X-657081Y-8786137D01*
X-284875Y-8786137D01*
X-191823Y-8703425D01*
X-191823Y-8289862D01*
X+180383Y-8455287D02*
X+366486Y-8289862D01*
X+366486Y-8786137D01*
D23*
X-2585360Y-7278660D02*
X+345460Y-7278660D01*
X+345460Y-6115340D01*
X-2585360Y-6115340D01*
X-2585360Y-7278660D01*
D38*
X-1960055Y-6883690D02*
X-1960055Y-6510310D01*
X-1610012Y-6510310D01*
X-1540003Y-6572540D01*
X-1540003Y-6634770D01*
X-1610012Y-6697000D01*
X-1960055Y-6697000D01*
X-1610012Y-6697000D02*
X-1540003Y-6759230D01*
X-1540003Y-6883690D01*
X-1399985Y-6510310D02*
X-1399985Y-6883690D01*
X-979933Y-6883690D01*
X-699898Y-6634770D02*
X-559880Y-6510310D01*
X-559880Y-6883690D01*
D23*
X+746840Y-6637160D02*
X+2545160Y-6637160D01*
X+2545160Y-6108840D01*
X+746840Y-6108840D01*
X+746840Y-6637160D01*
D39*
X+2408000Y-6246000D02*
X+2408000Y-6246000D01*
D40*
X+917020Y-6266320D02*
X+917020Y-6479680D01*
X+1157050Y-6479680D01*
X+1477090Y-6444120D02*
X+1437085Y-6479680D01*
X+1317070Y-6479680D01*
X+1237060Y-6408560D01*
X+1237060Y-6337440D01*
X+1317070Y-6266320D01*
X+1437085Y-6266320D01*
X+1477090Y-6301880D01*
X+1557100Y-6479680D02*
X+1557100Y-6266320D01*
X+1717120Y-6266320D01*
X+1797130Y-6337440D01*
X+1797130Y-6408560D01*
X+1717120Y-6479680D01*
X+1557100Y-6479680D01*
X+1957150Y-6337440D02*
X+2037160Y-6266320D01*
X+2037160Y-6479680D01*
D23*
X-72160Y-10364160D02*
X+964160Y-10364160D01*
X+964160Y-9835840D01*
X-72160Y-9835840D01*
X-72160Y-10364160D01*
D39*
X+700000Y-10100000D02*
X+700000Y-10100000D01*
D41*
X+80241Y-10028881D02*
X+240260Y-10171120D01*
X+80241Y-10171120D02*
X+240260Y-10028881D01*
X+346939Y-10076294D02*
X+400279Y-10028881D01*
X+400279Y-10171120D01*
D23*
X-2137160Y-11037160D02*
X-1100840Y-11037160D01*
X-1100840Y-10762840D01*
X-2137160Y-10762840D01*
X-2137160Y-11037160D01*
D39*
X-1238000Y-10900000D02*
X-1238000Y-10900000D01*
D42*
X-1867920Y-10846660D02*
X-1867920Y-10935560D01*
X-1847918Y-10953340D01*
X-1767908Y-10953340D01*
X-1747905Y-10935560D01*
X-1747905Y-10846660D01*
X-1687898Y-10864440D02*
X-1667895Y-10846660D01*
X-1607888Y-10846660D01*
X-1587885Y-10864440D01*
X-1587885Y-10882220D01*
X-1607888Y-10900000D01*
X-1667895Y-10900000D01*
X-1687898Y-10917780D01*
X-1687898Y-10953340D01*
X-1587885Y-10953340D01*
D23*
X+2111100Y-7088900D02*
X+3304900Y-7088900D01*
X+3304900Y-6911100D01*
X+2111100Y-6911100D01*
X+2111100Y-7088900D01*
D43*
X+2200000Y-7000000D02*
X+2200000Y-7000000D01*
D44*
X+2671018Y-7033071D02*
X+2671018Y-6966930D01*
X+2733025Y-6966930D01*
X+2745427Y-6977953D01*
X+2745427Y-6988977D01*
X+2733025Y-7000000D01*
X+2671018Y-7000000D01*
X+2733025Y-7000000D02*
X+2745427Y-7011024D01*
X+2745427Y-7033071D01*
X+2795033Y-6988977D02*
X+2819836Y-6966930D01*
X+2819836Y-7033071D01*
D23*
X+524100Y-7537900D02*
X+1717900Y-7537900D01*
X+1717900Y-7360100D01*
X+524100Y-7360100D01*
X+524100Y-7537900D01*
D43*
X+1629000Y-7449000D02*
X+1629000Y-7449000D01*
D44*
X+959558Y-7482071D02*
X+959558Y-7415930D01*
X+1021565Y-7415930D01*
X+1033967Y-7426953D01*
X+1033967Y-7437977D01*
X+1021565Y-7449000D01*
X+959558Y-7449000D01*
X+1021565Y-7449000D02*
X+1033967Y-7460024D01*
X+1033967Y-7482071D01*
X+1071171Y-7426953D02*
X+1083573Y-7415930D01*
X+1120777Y-7415930D01*
X+1133179Y-7426953D01*
X+1133179Y-7437977D01*
X+1120777Y-7449000D01*
X+1133179Y-7460024D01*
X+1133179Y-7471048D01*
X+1120777Y-7482071D01*
X+1083573Y-7482071D01*
X+1071171Y-7471048D01*
X+1095974Y-7449000D02*
X+1120777Y-7449000D01*
D23*
X+524100Y-7129900D02*
X+1717900Y-7129900D01*
X+1717900Y-6952100D01*
X+524100Y-6952100D01*
X+524100Y-7129900D01*
D43*
X+1629000Y-7041000D02*
X+1629000Y-7041000D01*
D44*
X+959558Y-7074071D02*
X+959558Y-7007930D01*
X+1021565Y-7007930D01*
X+1033967Y-7018953D01*
X+1033967Y-7029977D01*
X+1021565Y-7041000D01*
X+959558Y-7041000D01*
X+1021565Y-7041000D02*
X+1033967Y-7052024D01*
X+1033967Y-7074071D01*
X+1133179Y-7052024D02*
X+1058770Y-7052024D01*
X+1108376Y-7007930D01*
X+1108376Y-7074071D01*
D23*
X+2111100Y-7488900D02*
X+3304900Y-7488900D01*
X+3304900Y-7311100D01*
X+2111100Y-7311100D01*
X+2111100Y-7488900D01*
D43*
X+2200000Y-7400000D02*
X+2200000Y-7400000D01*
D44*
X+2671018Y-7433071D02*
X+2671018Y-7366930D01*
X+2733025Y-7366930D01*
X+2745427Y-7377953D01*
X+2745427Y-7388977D01*
X+2733025Y-7400000D01*
X+2671018Y-7400000D01*
X+2733025Y-7400000D02*
X+2745427Y-7411024D01*
X+2745427Y-7433071D01*
X+2844639Y-7366930D02*
X+2782631Y-7366930D01*
X+2782631Y-7388977D01*
X+2832237Y-7388977D01*
X+2844639Y-7400000D01*
X+2844639Y-7422048D01*
X+2832237Y-7433071D01*
X+2795033Y-7433071D01*
X+2782631Y-7422048D01*
D23*
X+1349100Y-10288900D02*
X+2288900Y-10288900D01*
X+2288900Y-10111100D01*
X+1349100Y-10111100D01*
X+1349100Y-10288900D01*
D43*
X+1438000Y-10200000D02*
X+1438000Y-10200000D01*
D44*
X+1782018Y-10233071D02*
X+1782018Y-10166930D01*
X+1831624Y-10166930D01*
X+1856427Y-10188977D01*
X+1856427Y-10211024D01*
X+1831624Y-10233071D01*
X+1782018Y-10233071D01*
X+1906033Y-10188977D02*
X+1930836Y-10166930D01*
X+1930836Y-10233071D01*
D23*
X-2427660Y-10453060D02*
X-1924740Y-10453060D01*
X-1924740Y-9746940D01*
X-2427660Y-9746940D01*
X-2427660Y-10453060D01*
D45*
X-2100000Y-10303200D02*
X-2100000Y-10303200D01*
D46*
X-2193048Y-10161467D02*
X-2226745Y-10123558D01*
X-2226745Y-10085649D01*
X-2193048Y-10047740D01*
X-2159351Y-10047740D01*
X-2125654Y-10085649D01*
X-2125654Y-10123558D01*
X-2159351Y-10161467D01*
X-2193048Y-10161467D01*
X-2159351Y-10085649D02*
X-2125654Y-10047740D01*
X-2193048Y-9971921D02*
X-2226745Y-9934012D01*
X-2125654Y-9934012D01*
D23*
X+2879100Y-8902900D02*
X+3056900Y-8902900D01*
X+3056900Y-7709100D01*
X+2879100Y-7709100D01*
X+2879100Y-8902900D01*
D43*
X+2968000Y-8814000D02*
X+2968000Y-8814000D01*
D44*
X+3001071Y-8342982D02*
X+2934930Y-8342982D01*
X+2934930Y-8280975D01*
X+2945953Y-8268573D01*
X+2956977Y-8268573D01*
X+2968000Y-8280975D01*
X+2968000Y-8342982D01*
X+2968000Y-8280975D02*
X+2979024Y-8268573D01*
X+3001071Y-8268573D01*
X+2945953Y-8231369D02*
X+2934930Y-8218967D01*
X+2934930Y-8181763D01*
X+2945953Y-8169361D01*
X+2956977Y-8169361D01*
X+2968000Y-8181763D01*
X+2968000Y-8218967D01*
X+2979024Y-8231369D01*
X+3001071Y-8231369D01*
X+3001071Y-8169361D01*
D23*
X-2891160Y-11037160D02*
X-2362840Y-11037160D01*
X-2362840Y-10762840D01*
X-2891160Y-10762840D01*
X-2891160Y-11037160D01*
D39*
X-2500000Y-10900000D02*
X-2500000Y-10900000D01*
D47*
X-2864490Y-10924765D02*
X-2864490Y-10875235D01*
X-2818056Y-10875235D01*
X-2808769Y-10883490D01*
X-2808769Y-10891745D01*
X-2818056Y-10900000D01*
X-2808769Y-10908255D01*
X-2808769Y-10916510D01*
X-2818056Y-10924765D01*
X-2864490Y-10924765D01*
X-2864490Y-10900000D02*
X-2818056Y-10900000D01*
X-2790195Y-10875235D02*
X-2790195Y-10916510D01*
X-2780909Y-10924765D01*
X-2743761Y-10924765D01*
X-2734474Y-10916510D01*
X-2734474Y-10875235D01*
X-2715900Y-10875235D02*
X-2660179Y-10875235D01*
X-2715900Y-10924765D01*
X-2660179Y-10924765D01*
X-2632319Y-10883490D02*
X-2623032Y-10875235D01*
X-2595171Y-10875235D01*
X-2585884Y-10883490D01*
X-2585884Y-10891745D01*
X-2595171Y-10900000D01*
X-2623032Y-10900000D01*
X-2632319Y-10908255D01*
X-2632319Y-10924765D01*
X-2585884Y-10924765D01*
D48*
X-685000Y-10285000D02*
X-685000Y-9815000D01*
X-915000Y-9815000D01*
X-915000Y-10285000D01*
X-685000Y-10285000D01*
X-850000Y-10050000D02*
X-750000Y-10050000D01*
X-800000Y-10000000D02*
X-800000Y-10100000D01*
D49*
X-800000Y-10200000D02*
X-800000Y-10200000D01*
D44*
X-777926Y-10013050D02*
X-766889Y-10025466D01*
X-766889Y-10062716D01*
X-788963Y-10087549D01*
X-811037Y-10087549D01*
X-833111Y-10062716D01*
X-833111Y-10025466D01*
X-822074Y-10013050D01*
X-822074Y-9975800D02*
X-833111Y-9963383D01*
X-833111Y-9926133D01*
X-822074Y-9913717D01*
X-811037Y-9913717D01*
X-800000Y-9926133D01*
X-788963Y-9913717D01*
X-777926Y-9913717D01*
X-766889Y-9926133D01*
X-766889Y-9963383D01*
X-777926Y-9975800D01*
X-800000Y-9950967D02*
X-800000Y-9926133D01*
D48*
X-1185000Y-10285000D02*
X-1185000Y-9815000D01*
X-1415000Y-9815000D01*
X-1415000Y-10285000D01*
X-1185000Y-10285000D01*
X-1350000Y-10050000D02*
X-1250000Y-10050000D01*
X-1300000Y-10000000D02*
X-1300000Y-10100000D01*
D49*
X-1300000Y-10200000D02*
X-1300000Y-10200000D01*
D44*
X-1277926Y-10013050D02*
X-1266889Y-10025466D01*
X-1266889Y-10062716D01*
X-1288963Y-10087549D01*
X-1311037Y-10087549D01*
X-1333111Y-10062716D01*
X-1333111Y-10025466D01*
X-1322074Y-10013050D01*
X-1288963Y-9913717D02*
X-1288963Y-9988216D01*
X-1333111Y-9938550D01*
X-1266889Y-9938550D01*
D23*
X+1349100Y-9788900D02*
X+2288900Y-9788900D01*
X+2288900Y-9611100D01*
X+1349100Y-9611100D01*
X+1349100Y-9788900D01*
D43*
X+1438000Y-9700000D02*
X+1438000Y-9700000D01*
D44*
X+1782018Y-9733071D02*
X+1782018Y-9666930D01*
X+1831624Y-9666930D01*
X+1856427Y-9688977D01*
X+1856427Y-9711024D01*
X+1831624Y-9733071D01*
X+1782018Y-9733071D01*
X+1893631Y-9677953D02*
X+1906033Y-9666930D01*
X+1943237Y-9666930D01*
X+1955639Y-9677953D01*
X+1955639Y-9688977D01*
X+1943237Y-9700000D01*
X+1906033Y-9700000D01*
X+1893631Y-9711024D01*
X+1893631Y-9733071D01*
X+1955639Y-9733071D01*
D23*
X-737160Y-11137160D02*
X-462840Y-11137160D01*
X-462840Y-10862840D01*
X-737160Y-10862840D01*
X-737160Y-11137160D01*
D50*
X-676199Y-11008467D02*
X-676199Y-11016934D01*
X-666675Y-11025400D01*
X-628575Y-11025400D01*
X-619050Y-11016934D01*
X-619050Y-10974601D01*
X-580951Y-10991534D02*
X-561901Y-10974601D01*
X-561901Y-11025400D01*
D23*
X-237160Y-11137160D02*
X+37160Y-11137160D01*
X+37160Y-10862840D01*
X-237160Y-10862840D01*
X-237160Y-11137160D01*
D50*
X-176199Y-11008467D02*
X-176199Y-11016934D01*
X-166675Y-11025400D01*
X-128575Y-11025400D01*
X-119050Y-11016934D01*
X-119050Y-10974601D01*
X-90476Y-10983067D02*
X-80951Y-10974601D01*
X-52376Y-10974601D01*
X-42851Y-10983067D01*
X-42851Y-10991534D01*
X-52376Y-11000000D01*
X-80951Y-11000000D01*
X-90476Y-11008467D01*
X-90476Y-11025400D01*
X-42851Y-11025400D01*
D23*
X+362840Y-11137160D02*
X+637160Y-11137160D01*
X+637160Y-10862840D01*
X+362840Y-10862840D01*
X+362840Y-11137160D01*
D50*
X+423801Y-11008467D02*
X+423801Y-11016934D01*
X+433325Y-11025400D01*
X+471425Y-11025400D01*
X+480950Y-11016934D01*
X+480950Y-10974601D01*
X+509524Y-10983067D02*
X+519049Y-10974601D01*
X+547624Y-10974601D01*
X+557149Y-10983067D01*
X+557149Y-10991534D01*
X+547624Y-11000000D01*
X+557149Y-11008467D01*
X+557149Y-11016934D01*
X+547624Y-11025400D01*
X+519049Y-11025400D01*
X+509524Y-11016934D01*
X+528574Y-11000000D02*
X+547624Y-11000000D01*
D23*
X+862840Y-11137160D02*
X+1137160Y-11137160D01*
X+1137160Y-10862840D01*
X+862840Y-10862840D01*
X+862840Y-11137160D01*
D50*
X+923801Y-11008467D02*
X+923801Y-11016934D01*
X+933325Y-11025400D01*
X+971425Y-11025400D01*
X+980950Y-11016934D01*
X+980950Y-10974601D01*
X+1057149Y-11008467D02*
X+1000000Y-11008467D01*
X+1038099Y-10974601D01*
X+1038099Y-11025400D01*
D23*
X+1362840Y-11137160D02*
X+1637160Y-11137160D01*
X+1637160Y-10862840D01*
X+1362840Y-10862840D01*
X+1362840Y-11137160D01*
D50*
X+1423801Y-11008467D02*
X+1423801Y-11016934D01*
X+1433325Y-11025400D01*
X+1471425Y-11025400D01*
X+1480950Y-11016934D01*
X+1480950Y-10974601D01*
X+1557149Y-10974601D02*
X+1509524Y-10974601D01*
X+1509524Y-10991534D01*
X+1547624Y-10991534D01*
X+1557149Y-11000000D01*
X+1557149Y-11016934D01*
X+1547624Y-11025400D01*
X+1519049Y-11025400D01*
X+1509524Y-11016934D01*
D23*
X+1862840Y-11137160D02*
X+2137160Y-11137160D01*
X+2137160Y-10862840D01*
X+1862840Y-10862840D01*
X+1862840Y-11137160D01*
D50*
X+1923801Y-11008467D02*
X+1923801Y-11016934D01*
X+1933325Y-11025400D01*
X+1971425Y-11025400D01*
X+1980950Y-11016934D01*
X+1980950Y-10974601D01*
X+2057149Y-10983067D02*
X+2047624Y-10974601D01*
X+2019049Y-10974601D01*
X+2009524Y-10983067D01*
X+2009524Y-11016934D01*
X+2019049Y-11025400D01*
X+2047624Y-11025400D01*
X+2057149Y-11016934D01*
X+2057149Y-11008467D01*
X+2047624Y-11000000D01*
X+2009524Y-11000000D01*
D23*
X+2362840Y-11137160D02*
X+2637160Y-11137160D01*
X+2637160Y-10862840D01*
X+2362840Y-10862840D01*
X+2362840Y-11137160D01*
D50*
X+2423801Y-11008467D02*
X+2423801Y-11016934D01*
X+2433325Y-11025400D01*
X+2471425Y-11025400D01*
X+2480950Y-11016934D01*
X+2480950Y-10974601D01*
X+2509524Y-10974601D02*
X+2557149Y-10974601D01*
X+2557149Y-10983067D01*
X+2509524Y-11025400D01*
D23*
X+2562840Y-10437160D02*
X+2837160Y-10437160D01*
X+2837160Y-10162840D01*
X+2562840Y-10162840D01*
X+2562840Y-10437160D01*
D50*
X+2623801Y-10308467D02*
X+2623801Y-10316934D01*
X+2633325Y-10325400D01*
X+2671425Y-10325400D01*
X+2680950Y-10316934D01*
X+2680950Y-10274601D01*
X+2719049Y-10300000D02*
X+2709524Y-10291534D01*
X+2709524Y-10283067D01*
X+2719049Y-10274601D01*
X+2747624Y-10274601D01*
X+2757149Y-10283067D01*
X+2757149Y-10291534D01*
X+2747624Y-10300000D01*
X+2719049Y-10300000D01*
X+2709524Y-10308467D01*
X+2709524Y-10316934D01*
X+2719049Y-10325400D01*
X+2747624Y-10325400D01*
X+2757149Y-10316934D01*
X+2757149Y-10308467D01*
X+2747624Y-10300000D01*
D23*
X+2562840Y-9837160D02*
X+2837160Y-9837160D01*
X+2837160Y-9562840D01*
X+2562840Y-9562840D01*
X+2562840Y-9837160D01*
D50*
X+2623801Y-9708467D02*
X+2623801Y-9716934D01*
X+2633325Y-9725400D01*
X+2671425Y-9725400D01*
X+2680950Y-9716934D01*
X+2680950Y-9674601D01*
X+2757149Y-9691534D02*
X+2747624Y-9700000D01*
X+2719049Y-9700000D01*
X+2709524Y-9691534D01*
X+2709524Y-9683067D01*
X+2719049Y-9674601D01*
X+2747624Y-9674601D01*
X+2757149Y-9683067D01*
X+2757149Y-9716934D01*
X+2747624Y-9725400D01*
X+2719049Y-9725400D01*
D23*
X+3062840Y-10437160D02*
X+3337160Y-10437160D01*
X+3337160Y-10162840D01*
X+3062840Y-10162840D01*
X+3062840Y-10437160D01*
D50*
X+3085702Y-10308467D02*
X+3085702Y-10316934D01*
X+3095226Y-10325400D01*
X+3133326Y-10325400D01*
X+3142851Y-10316934D01*
X+3142851Y-10274601D01*
X+3180950Y-10291534D02*
X+3200000Y-10274601D01*
X+3200000Y-10325400D01*
X+3238100Y-10316934D02*
X+3238100Y-10283067D01*
X+3247624Y-10274601D01*
X+3285724Y-10274601D01*
X+3295249Y-10283067D01*
X+3295249Y-10316934D01*
X+3285724Y-10325400D01*
X+3247624Y-10325400D01*
X+3238100Y-10316934D01*
X+3238100Y-10325400D02*
X+3295249Y-10274601D01*
D23*
X+3062840Y-9837160D02*
X+3337160Y-9837160D01*
X+3337160Y-9562840D01*
X+3062840Y-9562840D01*
X+3062840Y-9837160D01*
D50*
X+3085702Y-9708467D02*
X+3085702Y-9716934D01*
X+3095226Y-9725400D01*
X+3133326Y-9725400D01*
X+3142851Y-9716934D01*
X+3142851Y-9674601D01*
X+3180950Y-9691534D02*
X+3200000Y-9674601D01*
X+3200000Y-9725400D01*
X+3257149Y-9691534D02*
X+3276199Y-9674601D01*
X+3276199Y-9725400D01*
D23*
X+2962840Y-11137160D02*
X+3237160Y-11137160D01*
X+3237160Y-10862840D01*
X+2962840Y-10862840D01*
X+2962840Y-11137160D01*
D50*
X+2985702Y-11008467D02*
X+2985702Y-11016934D01*
X+2995226Y-11025400D01*
X+3033326Y-11025400D01*
X+3042851Y-11016934D01*
X+3042851Y-10974601D01*
X+3080950Y-10991534D02*
X+3100000Y-10974601D01*
X+3100000Y-11025400D01*
X+3147624Y-10983067D02*
X+3157149Y-10974601D01*
X+3185724Y-10974601D01*
X+3195249Y-10983067D01*
X+3195249Y-10991534D01*
X+3185724Y-11000000D01*
X+3157149Y-11000000D01*
X+3147624Y-11008467D01*
X+3147624Y-11025400D01*
X+3195249Y-11025400D01*
M02*
