G04 PROTEUS GERBER X2 FILE*
%TF.GenerationSoftware,Labcenter,Proteus,8.12-SP0-Build30713*%
%TF.CreationDate,2026-02-27T05:48:41+00:00*%
%TF.FileFunction,Soldermask,Top*%
%TF.FilePolarity,Negative*%
%TF.Part,Single*%
%TF.SameCoordinates,{c3d214fe-1525-466a-9aad-c1a0e93b99cd}*%
%FSLAX45Y45*%
%MOMM*%
G01*
%TA.AperFunction,Material*%
%ADD25C,1.016000*%
%AMPPAD018*
4,1,36,
-0.635000,0.762000,
0.635000,0.762000,
0.660970,0.759470,
0.684980,0.752200,
0.706580,0.740650,
0.725290,0.725290,
0.740650,0.706570,
0.752200,0.684980,
0.759470,0.660970,
0.762000,0.635000,
0.762000,-0.635000,
0.759470,-0.660970,
0.752200,-0.684980,
0.740650,-0.706570,
0.725290,-0.725290,
0.706580,-0.740650,
0.684980,-0.752200,
0.660970,-0.759470,
0.635000,-0.762000,
-0.635000,-0.762000,
-0.660970,-0.759470,
-0.684980,-0.752200,
-0.706580,-0.740650,
-0.725290,-0.725290,
-0.740650,-0.706570,
-0.752200,-0.684980,
-0.759470,-0.660970,
-0.762000,-0.635000,
-0.762000,0.635000,
-0.759470,0.660970,
-0.752200,0.684980,
-0.740650,0.706570,
-0.725290,0.725290,
-0.706580,0.740650,
-0.684980,0.752200,
-0.660970,0.759470,
-0.635000,0.762000,
0*%
%TA.AperFunction,Material*%
%ADD26PPAD018*%
%ADD27C,1.524000*%
%TA.AperFunction,Material*%
%ADD28C,2.794000*%
%AMPPAD021*
4,1,36,
1.016000,-1.143000,
-1.016000,-1.143000,
-1.041970,-1.140470,
-1.065980,-1.133200,
-1.087580,-1.121650,
-1.106290,-1.106290,
-1.121650,-1.087570,
-1.133200,-1.065980,
-1.140470,-1.041970,
-1.143000,-1.016000,
-1.143000,1.016000,
-1.140470,1.041970,
-1.133200,1.065980,
-1.121650,1.087570,
-1.106290,1.106290,
-1.087580,1.121650,
-1.065980,1.133200,
-1.041970,1.140470,
-1.016000,1.143000,
1.016000,1.143000,
1.041970,1.140470,
1.065980,1.133200,
1.087580,1.121650,
1.106290,1.106290,
1.121650,1.087570,
1.133200,1.065980,
1.140470,1.041970,
1.143000,1.016000,
1.143000,-1.016000,
1.140470,-1.041970,
1.133200,-1.065980,
1.121650,-1.087570,
1.106290,-1.106290,
1.087580,-1.121650,
1.065980,-1.133200,
1.041970,-1.140470,
1.016000,-1.143000,
0*%
%TA.AperFunction,Material*%
%ADD29PPAD021*%
%TA.AperFunction,Material*%
%ADD72C,2.286000*%
%ADD73C,2.032000*%
%TA.AperFunction,Material*%
%ADD30C,1.778000*%
%AMPPAD025*
4,1,4,
-0.901700,-0.571500,
-0.901700,0.571500,
0.901700,0.571500,
0.901700,-0.571500,
-0.901700,-0.571500,
0*%
%TA.AperFunction,Material*%
%ADD31PPAD025*%
%TA.AperFunction,Material*%
%ADD32C,2.006600*%
%AMPPAD027*
4,1,36,
-0.952500,1.079500,
0.952500,1.079500,
0.978470,1.076970,
1.002480,1.069700,
1.024080,1.058150,
1.042790,1.042790,
1.058150,1.024070,
1.069700,1.002480,
1.076970,0.978470,
1.079500,0.952500,
1.079500,-0.952500,
1.076970,-0.978470,
1.069700,-1.002480,
1.058150,-1.024070,
1.042790,-1.042790,
1.024080,-1.058150,
1.002480,-1.069700,
0.978470,-1.076970,
0.952500,-1.079500,
-0.952500,-1.079500,
-0.978470,-1.076970,
-1.002480,-1.069700,
-1.024080,-1.058150,
-1.042790,-1.042790,
-1.058150,-1.024070,
-1.069700,-1.002480,
-1.076970,-0.978470,
-1.079500,-0.952500,
-1.079500,0.952500,
-1.076970,0.978470,
-1.069700,1.002480,
-1.058150,1.024070,
-1.042790,1.042790,
-1.024080,1.058150,
-1.002480,1.069700,
-0.978470,1.076970,
-0.952500,1.079500,
0*%
%ADD33PPAD027*%
%TA.AperFunction,Profile*%
%ADD22C,0.203200*%
%TD.AperFunction*%
D25*
X-317500Y-6794500D03*
X+762000Y-6921500D03*
X+63500Y-9779000D03*
X-1397000Y-7620000D03*
X+1460500Y-7366000D03*
X+2476500Y-6921500D03*
D26*
X-2500000Y-9300000D03*
D27*
X-2246000Y-9300000D03*
X-1992000Y-9300000D03*
X-1738000Y-9300000D03*
X-1484000Y-9300000D03*
X-1230000Y-9300000D03*
X-976000Y-9300000D03*
X-722000Y-9300000D03*
X-468000Y-9300000D03*
X-214000Y-9300000D03*
X+40000Y-9300000D03*
X+294000Y-9300000D03*
X+548000Y-9300000D03*
X+802000Y-9300000D03*
X+1056000Y-9300000D03*
X+1310000Y-9300000D03*
X+1564000Y-9300000D03*
X+1818000Y-9300000D03*
X+2072000Y-9300000D03*
X+2326000Y-9300000D03*
X+2326000Y-7776000D03*
X+2072000Y-7776000D03*
X+1818000Y-7776000D03*
X+1564000Y-7776000D03*
X+1310000Y-7776000D03*
X+1056000Y-7776000D03*
X+802000Y-7776000D03*
X+548000Y-7776000D03*
X+294000Y-7776000D03*
X+40000Y-7776000D03*
X-214000Y-7776000D03*
X-468000Y-7776000D03*
X-722000Y-7776000D03*
X-976000Y-7776000D03*
X-1230000Y-7776000D03*
X-1484000Y-7776000D03*
X-1738000Y-7776000D03*
X-1992000Y-7776000D03*
X-2246000Y-7776000D03*
X-2500000Y-7776000D03*
D28*
X-2299000Y-7075460D03*
X-2299000Y-6316000D03*
X-299000Y-6316000D03*
X-649000Y-7066000D03*
X+51000Y-7066000D03*
D29*
X+2408000Y-6246000D03*
X+2154000Y-6246000D03*
X+1900000Y-6246000D03*
X+1646000Y-6246000D03*
X+1392000Y-6246000D03*
X+1138000Y-6246000D03*
X+884000Y-6246000D03*
X+884000Y-6500000D03*
X+1138000Y-6500000D03*
X+1392000Y-6500000D03*
X+1646000Y-6500000D03*
X+1900000Y-6500000D03*
X+2154000Y-6500000D03*
X+2408000Y-6500000D03*
D72*
X+700000Y-10100000D03*
X+192000Y-10100000D03*
D29*
X-1238000Y-10900000D03*
X-1492000Y-10900000D03*
X-1746000Y-10900000D03*
X-2000000Y-10900000D03*
D73*
X+2200000Y-7000000D03*
X+3216000Y-7000000D03*
X+1629000Y-7449000D03*
X+613000Y-7449000D03*
X+1629000Y-7041000D03*
X+613000Y-7041000D03*
X+2200000Y-7400000D03*
X+3216000Y-7400000D03*
X+2200000Y-10200000D03*
X+1438000Y-10200000D03*
D30*
X-2100000Y-10303200D03*
X-2100000Y-10100000D03*
X-2100000Y-9896800D03*
D73*
X+2968000Y-8814000D03*
X+2968000Y-7798000D03*
D29*
X-2500000Y-10900000D03*
X-2754000Y-10900000D03*
D31*
X-800000Y-10200000D03*
X-800000Y-9900000D03*
X-1300000Y-10200000D03*
X-1300000Y-9900000D03*
D73*
X+2200000Y-9700000D03*
X+1438000Y-9700000D03*
D72*
X-600000Y-11000000D03*
X-100000Y-11000000D03*
X+500000Y-11000000D03*
X+1000000Y-11000000D03*
X+1500000Y-11000000D03*
X+2000000Y-11000000D03*
X+2500000Y-11000000D03*
X+2700000Y-10300000D03*
X+2700000Y-9700000D03*
X+3200000Y-10300000D03*
X+3200000Y-9700000D03*
X+3100000Y-11000000D03*
D32*
X+3000000Y-6300000D03*
X-2400000Y-10600000D03*
X+3100000Y-10600000D03*
X+900000Y-9700000D03*
X-2800000Y-6300000D03*
D33*
X-1800000Y-6500000D03*
D22*
X-3100000Y-11320000D02*
X+3450000Y-11320000D01*
X+3450000Y-5930000D01*
X-3100000Y-5930000D01*
X-3100000Y-11320000D01*
M02*
