G04 PROTEUS GERBER X2 FILE*
%TF.GenerationSoftware,Labcenter,Proteus,8.12-SP0-Build30713*%
%TF.CreationDate,2026-02-27T05:48:41+00:00*%
%TF.FileFunction,Copper,L3,Inr*%
%TF.FilePolarity,Positive*%
%TF.Part,Single*%
%TF.SameCoordinates,{c3d214fe-1525-466a-9aad-c1a0e93b99cd}*%
%FSLAX45Y45*%
%MOMM*%
G01*
%TA.AperFunction,ViaPad*%
%ADD13C,0.762000*%
%TA.AperFunction,ComponentPad*%
%ADD14R,1.270000X1.270000*%
%ADD15C,1.270000*%
%TA.AperFunction,ComponentPad*%
%ADD16C,2.540000*%
%TA.AperFunction,ComponentPad*%
%ADD17R,2.032000X2.032000*%
%TA.AperFunction,ComponentPad*%
%ADD18C,2.032000*%
%ADD19C,1.778000*%
%TA.AperFunction,ComponentPad*%
%ADD70C,1.524000*%
%TA.AperFunction,OtherPad,Unknown*%
%ADD21R,1.905000X1.905000*%
%TA.AperFunction,Profile*%
%ADD22C,0.203200*%
%TD.AperFunction*%
D13*
X-317500Y-6794500D03*
X+762000Y-6921500D03*
X+63500Y-9779000D03*
X-1397000Y-7620000D03*
X+1460500Y-7366000D03*
X+2476500Y-6921500D03*
D14*
X-2500000Y-9300000D03*
D15*
X-2246000Y-9300000D03*
X-1992000Y-9300000D03*
X-1738000Y-9300000D03*
X-1484000Y-9300000D03*
X-1230000Y-9300000D03*
X-976000Y-9300000D03*
X-722000Y-9300000D03*
X-468000Y-9300000D03*
X-214000Y-9300000D03*
X+40000Y-9300000D03*
X+294000Y-9300000D03*
X+548000Y-9300000D03*
X+802000Y-9300000D03*
X+1056000Y-9300000D03*
X+1310000Y-9300000D03*
X+1564000Y-9300000D03*
X+1818000Y-9300000D03*
X+2072000Y-9300000D03*
X+2326000Y-9300000D03*
X+2326000Y-7776000D03*
X+2072000Y-7776000D03*
X+1818000Y-7776000D03*
X+1564000Y-7776000D03*
X+1310000Y-7776000D03*
X+1056000Y-7776000D03*
X+802000Y-7776000D03*
X+548000Y-7776000D03*
X+294000Y-7776000D03*
X+40000Y-7776000D03*
X-214000Y-7776000D03*
X-468000Y-7776000D03*
X-722000Y-7776000D03*
X-976000Y-7776000D03*
X-1230000Y-7776000D03*
X-1484000Y-7776000D03*
X-1738000Y-7776000D03*
X-1992000Y-7776000D03*
X-2246000Y-7776000D03*
X-2500000Y-7776000D03*
D16*
X-2299000Y-7075460D03*
X-2299000Y-6316000D03*
X-299000Y-6316000D03*
X-649000Y-7066000D03*
X+51000Y-7066000D03*
D17*
X+2408000Y-6246000D03*
X+2154000Y-6246000D03*
X+1900000Y-6246000D03*
X+1646000Y-6246000D03*
X+1392000Y-6246000D03*
X+1138000Y-6246000D03*
X+884000Y-6246000D03*
X+884000Y-6500000D03*
X+1138000Y-6500000D03*
X+1392000Y-6500000D03*
X+1646000Y-6500000D03*
X+1900000Y-6500000D03*
X+2154000Y-6500000D03*
X+2408000Y-6500000D03*
D18*
X+700000Y-10100000D03*
X+192000Y-10100000D03*
D17*
X-1238000Y-10900000D03*
X-1492000Y-10900000D03*
X-1746000Y-10900000D03*
X-2000000Y-10900000D03*
D19*
X+2200000Y-7000000D03*
X+3216000Y-7000000D03*
X+1629000Y-7449000D03*
X+613000Y-7449000D03*
X+1629000Y-7041000D03*
X+613000Y-7041000D03*
X+2200000Y-7400000D03*
X+3216000Y-7400000D03*
X+2200000Y-10200000D03*
X+1438000Y-10200000D03*
D70*
X-2100000Y-10303200D03*
X-2100000Y-10100000D03*
X-2100000Y-9896800D03*
D19*
X+2968000Y-8814000D03*
X+2968000Y-7798000D03*
D17*
X-2500000Y-10900000D03*
X-2754000Y-10900000D03*
D19*
X+2200000Y-9700000D03*
X+1438000Y-9700000D03*
D18*
X-600000Y-11000000D03*
X-100000Y-11000000D03*
X+500000Y-11000000D03*
X+1000000Y-11000000D03*
X+1500000Y-11000000D03*
X+2000000Y-11000000D03*
X+2500000Y-11000000D03*
X+2700000Y-10300000D03*
X+2700000Y-9700000D03*
X+3200000Y-10300000D03*
X+3200000Y-9700000D03*
X+3100000Y-11000000D03*
D21*
X-1800000Y-6500000D03*
D22*
X-3100000Y-11320000D02*
X+3450000Y-11320000D01*
X+3450000Y-5930000D01*
X-3100000Y-5930000D01*
X-3100000Y-11320000D01*
M02*
