G04 PROTEUS GERBER X2 FILE*
%TF.GenerationSoftware,Labcenter,Proteus,8.12-SP0-Build30713*%
%TF.CreationDate,2026-02-27T05:48:41+00:00*%
%TF.FileFunction,Copper,L4,Bot*%
%TF.FilePolarity,Positive*%
%TF.Part,Single*%
%TF.SameCoordinates,{c3d214fe-1525-466a-9aad-c1a0e93b99cd}*%
%FSLAX45Y45*%
%MOMM*%
G01*
%TA.AperFunction,Conductor*%
%ADD10C,0.254000*%
%ADD11C,0.635000*%
%ADD12C,0.508000*%
%TA.AperFunction,ViaPad*%
%ADD13C,0.762000*%
%TA.AperFunction,ComponentPad*%
%ADD14R,1.270000X1.270000*%
%ADD15C,1.270000*%
%TA.AperFunction,ComponentPad*%
%ADD16C,2.540000*%
%TA.AperFunction,ComponentPad*%
%ADD17R,2.032000X2.032000*%
%TA.AperFunction,ComponentPad*%
%ADD18C,2.032000*%
%ADD19C,1.778000*%
%TA.AperFunction,ComponentPad*%
%ADD70C,1.524000*%
%TA.AperFunction,WasherPad*%
%ADD20C,1.752600*%
%TA.AperFunction,OtherPad,Unknown*%
%ADD21R,1.905000X1.905000*%
%TA.AperFunction,Profile*%
%ADD22C,0.203200*%
%TD.AperFunction*%
G36*
X+3369990Y-11239990D02*
X+2701790Y-11239990D01*
X+2800349Y-11141431D01*
X+2800349Y-10702569D01*
X+2546349Y-10448569D01*
X+2546349Y-10370854D01*
X+2634244Y-10458749D01*
X+2765756Y-10458749D01*
X+2858749Y-10365756D01*
X+2858749Y-10234244D01*
X+2765756Y-10141251D01*
X+2634244Y-10141251D01*
X+2546349Y-10229146D01*
X+2546349Y-9770854D01*
X+2634244Y-9858749D01*
X+2765756Y-9858749D01*
X+2858749Y-9765756D01*
X+2858749Y-9634244D01*
X+2769849Y-9545344D01*
X+2769849Y-7471069D01*
X+2346049Y-7047269D01*
X+2346049Y-6939505D01*
X+2260495Y-6853951D01*
X+2139505Y-6853951D01*
X+2101849Y-6891607D01*
X+2101849Y-6818431D01*
X+2223849Y-6696431D01*
X+2223849Y-6658749D01*
X+2325451Y-6658749D01*
X+2325451Y-6887191D01*
X+2381251Y-6942991D01*
X+2381251Y-6960953D01*
X+2437047Y-7016749D01*
X+2515953Y-7016749D01*
X+2571749Y-6960953D01*
X+2571749Y-6882047D01*
X+2515953Y-6826251D01*
X+2497991Y-6826251D01*
X+2490549Y-6818809D01*
X+2490549Y-6658749D01*
X+2566749Y-6658749D01*
X+2566749Y-6165849D01*
X+2929403Y-6165849D01*
X+2855221Y-6240031D01*
X+2855221Y-6359969D01*
X+2940031Y-6444779D01*
X+3059969Y-6444779D01*
X+3144779Y-6359969D01*
X+3144779Y-6240031D01*
X+3070597Y-6165849D01*
X+3082569Y-6165849D01*
X+3146151Y-6229431D01*
X+3146151Y-6863305D01*
X+3069951Y-6939505D01*
X+3069951Y-7060495D01*
X+3146151Y-7136695D01*
X+3146151Y-7263305D01*
X+3069951Y-7339505D01*
X+3069951Y-7460495D01*
X+3155505Y-7546049D01*
X+3276495Y-7546049D01*
X+3362049Y-7460495D01*
X+3362049Y-7339505D01*
X+3285849Y-7263305D01*
X+3285849Y-7136695D01*
X+3362049Y-7060495D01*
X+3362049Y-6939505D01*
X+3285849Y-6863305D01*
X+3285849Y-6171569D01*
X+3140431Y-6026151D01*
X+2182931Y-6026151D01*
X+2166790Y-6010010D01*
X+3369990Y-6010010D01*
X+3369990Y-11239990D01*
G37*
%LPC*%
G36*
X+3028495Y-8960049D02*
X+2907505Y-8960049D01*
X+2821951Y-8874495D01*
X+2821951Y-8753505D01*
X+2907505Y-8667951D01*
X+3028495Y-8667951D01*
X+3114049Y-8753505D01*
X+3114049Y-8874495D01*
X+3028495Y-8960049D01*
G37*
G36*
X+3028495Y-7944049D02*
X+2907505Y-7944049D01*
X+2821951Y-7858495D01*
X+2821951Y-7737505D01*
X+2907505Y-7651951D01*
X+3028495Y-7651951D01*
X+3114049Y-7737505D01*
X+3114049Y-7858495D01*
X+3028495Y-7944049D01*
G37*
G36*
X+3358749Y-10234244D02*
X+3358749Y-10365756D01*
X+3265756Y-10458749D01*
X+3163497Y-10458749D01*
X+3244779Y-10540031D01*
X+3244779Y-10659969D01*
X+3159969Y-10744779D01*
X+3040031Y-10744779D01*
X+2955221Y-10659969D01*
X+2955221Y-10540031D01*
X+3040031Y-10455221D01*
X+3130716Y-10455221D01*
X+3041251Y-10365756D01*
X+3041251Y-10234244D01*
X+3134244Y-10141251D01*
X+3265756Y-10141251D01*
X+3358749Y-10234244D01*
G37*
G36*
X+3041251Y-9765756D02*
X+3041251Y-9634244D01*
X+3134244Y-9541251D01*
X+3265756Y-9541251D01*
X+3358749Y-9634244D01*
X+3358749Y-9765756D01*
X+3265756Y-9858749D01*
X+3134244Y-9858749D01*
X+3041251Y-9765756D01*
G37*
G36*
X+2941251Y-11065756D02*
X+2941251Y-10934244D01*
X+3034244Y-10841251D01*
X+3165756Y-10841251D01*
X+3258749Y-10934244D01*
X+3258749Y-11065756D01*
X+3165756Y-11158749D01*
X+3034244Y-11158749D01*
X+2941251Y-11065756D01*
G37*
%LPD*%
G36*
X+563610Y-6068610D02*
X+543151Y-6089069D01*
X+543151Y-6904305D01*
X+466951Y-6980505D01*
X+466951Y-7101495D01*
X+543151Y-7177695D01*
X+543151Y-7312305D01*
X+476305Y-7379151D01*
X-1806931Y-7379151D01*
X-1911349Y-7483569D01*
X-1911349Y-7686028D01*
X-1942026Y-7655351D01*
X-2026571Y-7655351D01*
X-2025651Y-7654431D01*
X-2025651Y-6490569D01*
X-2119397Y-6396823D01*
X-2114851Y-6392277D01*
X-2114851Y-6239723D01*
X-2222723Y-6131851D01*
X-2375277Y-6131851D01*
X-2483149Y-6239723D01*
X-2483149Y-6392277D01*
X-2375277Y-6500149D01*
X-2222723Y-6500149D01*
X-2218177Y-6495603D01*
X-2165349Y-6548431D01*
X-2165349Y-6948685D01*
X-2222723Y-6891311D01*
X-2375277Y-6891311D01*
X-2483149Y-6999183D01*
X-2483149Y-7151737D01*
X-2375277Y-7259609D01*
X-2222723Y-7259609D01*
X-2165349Y-7202235D01*
X-2165349Y-7596569D01*
X-2224131Y-7655351D01*
X-2295974Y-7655351D01*
X-2366649Y-7726026D01*
X-2366649Y-7825974D01*
X-2295974Y-7896649D01*
X-2196026Y-7896649D01*
X-2125351Y-7825974D01*
X-2125351Y-7754131D01*
X-2112649Y-7741429D01*
X-2112649Y-7825974D01*
X-2041974Y-7896649D01*
X-1942026Y-7896649D01*
X-1911349Y-7865972D01*
X-1911349Y-9210028D01*
X-1942026Y-9179351D01*
X-2041974Y-9179351D01*
X-2112649Y-9250026D01*
X-2112649Y-9349974D01*
X-2041974Y-9420649D01*
X-1942026Y-9420649D01*
X-1911349Y-9389972D01*
X-1911349Y-9609369D01*
X-2065431Y-9763451D01*
X-2155235Y-9763451D01*
X-2233349Y-9841565D01*
X-2233349Y-9931369D01*
X-2292349Y-9990369D01*
X-2292349Y-10502903D01*
X-2340031Y-10455221D01*
X-2459969Y-10455221D01*
X-2544779Y-10540031D01*
X-2544779Y-10659969D01*
X-2463497Y-10741251D01*
X-2912749Y-10741251D01*
X-2912749Y-11058749D01*
X-2341251Y-11058749D01*
X-2341251Y-10744779D01*
X-2340031Y-10744779D01*
X-2292349Y-10697097D01*
X-2292349Y-11077931D01*
X-2187931Y-11182349D01*
X-1209069Y-11182349D01*
X-1168151Y-11141431D01*
X-1168151Y-11058749D01*
X-1079251Y-11058749D01*
X-1079251Y-10741251D01*
X-1422151Y-10741251D01*
X-1422151Y-9559569D01*
X-1517651Y-9464069D01*
X-1517651Y-9420649D01*
X-1434026Y-9420649D01*
X-1363351Y-9349974D01*
X-1363351Y-9250026D01*
X-1434026Y-9179351D01*
X-1517651Y-9179351D01*
X-1517651Y-7897569D01*
X-1518571Y-7896649D01*
X-1434026Y-7896649D01*
X-1363351Y-7825974D01*
X-1363351Y-7726026D01*
X-1374128Y-7715249D01*
X-1357547Y-7715249D01*
X-1351197Y-7708899D01*
X-1333522Y-7708899D01*
X-1350649Y-7726026D01*
X-1350649Y-7825974D01*
X-1279974Y-7896649D01*
X-1180026Y-7896649D01*
X-1109351Y-7825974D01*
X-1109351Y-7726026D01*
X-1126478Y-7708899D01*
X-1079522Y-7708899D01*
X-1096649Y-7726026D01*
X-1096649Y-7825974D01*
X-1045849Y-7876774D01*
X-1045849Y-8029931D01*
X-1022349Y-8053431D01*
X-1022349Y-8220432D01*
X-981431Y-8261349D01*
X-895349Y-8347431D01*
X-895349Y-9210028D01*
X-926026Y-9179351D01*
X-1025974Y-9179351D01*
X-1096649Y-9250026D01*
X-1096649Y-9349974D01*
X-1025974Y-9420649D01*
X-926026Y-9420649D01*
X-895349Y-9389972D01*
X-895349Y-11141431D01*
X-796790Y-11239990D01*
X-3019990Y-11239990D01*
X-3019990Y-6010010D01*
X+622210Y-6010010D01*
X+563610Y-6068610D01*
G37*
%LPC*%
G36*
X-2620649Y-9179351D02*
X-2379351Y-9179351D01*
X-2379351Y-9420649D01*
X-2620649Y-9420649D01*
X-2620649Y-9179351D01*
G37*
G36*
X-2366649Y-9349974D02*
X-2366649Y-9250026D01*
X-2295974Y-9179351D01*
X-2196026Y-9179351D01*
X-2125351Y-9250026D01*
X-2125351Y-9349974D01*
X-2196026Y-9420649D01*
X-2295974Y-9420649D01*
X-2366649Y-9349974D01*
G37*
G36*
X-1350649Y-9349974D02*
X-1350649Y-9250026D01*
X-1279974Y-9179351D01*
X-1180026Y-9179351D01*
X-1109351Y-9250026D01*
X-1109351Y-9349974D01*
X-1180026Y-9420649D01*
X-1279974Y-9420649D01*
X-1350649Y-9349974D01*
G37*
G36*
X-2379351Y-7726026D02*
X-2379351Y-7825974D01*
X-2450026Y-7896649D01*
X-2549974Y-7896649D01*
X-2620649Y-7825974D01*
X-2620649Y-7726026D01*
X-2549974Y-7655351D01*
X-2450026Y-7655351D01*
X-2379351Y-7726026D01*
G37*
G36*
X-114851Y-6239723D02*
X-114851Y-6392277D01*
X-222723Y-6500149D01*
X-229151Y-6500149D01*
X-229151Y-6748147D01*
X-222251Y-6755047D01*
X-222251Y-6833953D01*
X-278047Y-6889749D01*
X-356953Y-6889749D01*
X-412749Y-6833953D01*
X-412749Y-6755047D01*
X-368849Y-6711147D01*
X-368849Y-6500149D01*
X-375277Y-6500149D01*
X-483149Y-6392277D01*
X-483149Y-6239723D01*
X-375277Y-6131851D01*
X-222723Y-6131851D01*
X-114851Y-6239723D01*
G37*
G36*
X-833149Y-7142277D02*
X-833149Y-6989723D01*
X-725277Y-6881851D01*
X-572723Y-6881851D01*
X-464851Y-6989723D01*
X-464851Y-7142277D01*
X-572723Y-7250149D01*
X-725277Y-7250149D01*
X-833149Y-7142277D01*
G37*
G36*
X-133149Y-7142277D02*
X-133149Y-6989723D01*
X-25277Y-6881851D01*
X+127277Y-6881851D01*
X+235149Y-6989723D01*
X+235149Y-7142277D01*
X+127277Y-7250149D01*
X-25277Y-7250149D01*
X-133149Y-7142277D01*
G37*
G36*
X-2604421Y-6218989D02*
X-2604421Y-6381011D01*
X-2718989Y-6495579D01*
X-2881011Y-6495579D01*
X-2995579Y-6381011D01*
X-2995579Y-6218989D01*
X-2881011Y-6104421D01*
X-2718989Y-6104421D01*
X-2604421Y-6218989D01*
G37*
G36*
X-1952399Y-6347601D02*
X-1647601Y-6347601D01*
X-1647601Y-6652399D01*
X-1952399Y-6652399D01*
X-1952399Y-6347601D01*
G37*
%LPD*%
G36*
X+1117601Y-10431500D02*
X+1117601Y-10642601D01*
X+963177Y-10642601D01*
X+911101Y-10694677D01*
X+911101Y-10864394D01*
X+841251Y-10934244D01*
X+841251Y-11065756D01*
X+934244Y-11158749D01*
X+1065756Y-11158749D01*
X+1158749Y-11065756D01*
X+1158749Y-10934244D01*
X+1088899Y-10864394D01*
X+1088899Y-10820399D01*
X+1694677Y-10820399D01*
X+1841251Y-10966973D01*
X+1841251Y-11065756D01*
X+1881646Y-11106151D01*
X+1704931Y-11106151D01*
X+1658749Y-11059969D01*
X+1658749Y-10934244D01*
X+1565756Y-10841251D01*
X+1434244Y-10841251D01*
X+1341251Y-10934244D01*
X+1341251Y-11065756D01*
X+1434244Y-11158749D01*
X+1559969Y-11158749D01*
X+1641210Y-11239990D01*
X+358790Y-11239990D01*
X+440031Y-11158749D01*
X+565756Y-11158749D01*
X+658749Y-11065756D01*
X+658749Y-10934244D01*
X+565756Y-10841251D01*
X+434244Y-10841251D01*
X+341251Y-10934244D01*
X+341251Y-11059969D01*
X+295069Y-11106151D01*
X+18354Y-11106151D01*
X+58749Y-11065756D01*
X+58749Y-10940031D01*
X+439926Y-10558854D01*
X+981431Y-10558854D01*
X+1117601Y-10422684D01*
X+1117601Y-10431500D01*
G37*
G36*
X+1969849Y-6752871D02*
X+1969849Y-6658749D01*
X+2063971Y-6658749D01*
X+1969849Y-6752871D01*
G37*
G36*
X+1830151Y-6811371D02*
X+1715849Y-6697069D01*
X+1715849Y-6658749D01*
X+1830151Y-6658749D01*
X+1830151Y-6811371D01*
G37*
G36*
X+758471Y-6826251D02*
X+722547Y-6826251D01*
X+682849Y-6865949D01*
X+682849Y-6750629D01*
X+758471Y-6826251D01*
G37*
G36*
X+1576151Y-6726000D02*
X+1576151Y-6754931D01*
X+1708151Y-6886931D01*
X+1708151Y-6913607D01*
X+1689495Y-6894951D01*
X+1568505Y-6894951D01*
X+1482951Y-6980505D01*
X+1482951Y-7088269D01*
X+1390651Y-7180569D01*
X+1390651Y-7301147D01*
X+1365251Y-7326547D01*
X+1365251Y-7405453D01*
X+1421047Y-7461249D01*
X+1482951Y-7461249D01*
X+1482951Y-7496269D01*
X+1390651Y-7588569D01*
X+1390651Y-7686028D01*
X+1359974Y-7655351D01*
X+1260026Y-7655351D01*
X+1189351Y-7726026D01*
X+1189351Y-7825974D01*
X+1260026Y-7896649D01*
X+1359974Y-7896649D01*
X+1390651Y-7865972D01*
X+1390651Y-9210028D01*
X+1379849Y-9199226D01*
X+1379849Y-8670569D01*
X+1022349Y-8313069D01*
X+1022349Y-7896649D01*
X+1105974Y-7896649D01*
X+1176649Y-7825974D01*
X+1176649Y-7726026D01*
X+1105974Y-7655351D01*
X+1022349Y-7655351D01*
X+1022349Y-6892569D01*
X+788529Y-6658749D01*
X+1576151Y-6658749D01*
X+1576151Y-6726000D01*
G37*
G36*
X+1708151Y-7321607D02*
X+1689495Y-7302951D01*
X+1568505Y-7302951D01*
X+1550329Y-7321127D01*
X+1530349Y-7301147D01*
X+1530349Y-7238431D01*
X+1581731Y-7187049D01*
X+1689495Y-7187049D01*
X+1708151Y-7168393D01*
X+1708151Y-7321607D01*
G37*
G36*
X+692151Y-7321607D02*
X+682849Y-7312305D01*
X+682849Y-7177695D01*
X+692151Y-7168393D01*
X+692151Y-7321607D01*
G37*
G36*
X+2356571Y-7655351D02*
X+2292349Y-7655351D01*
X+2292349Y-7591129D01*
X+2356571Y-7655351D01*
G37*
G36*
X+1841571Y-7655351D02*
X+1841429Y-7655351D01*
X+1841500Y-7655280D01*
X+1841571Y-7655351D01*
G37*
G36*
X+1982610Y-7478890D02*
X+2152651Y-7648931D01*
X+2152651Y-7686028D01*
X+2121974Y-7655351D01*
X+2038349Y-7655351D01*
X+2038349Y-7654569D01*
X+1969849Y-7586069D01*
X+1969849Y-7466129D01*
X+1982610Y-7478890D01*
G37*
G36*
X+1708151Y-7591069D02*
X+1644651Y-7654569D01*
X+1644651Y-7686028D01*
X+1613974Y-7655351D01*
X+1530349Y-7655351D01*
X+1530349Y-7646431D01*
X+1581731Y-7595049D01*
X+1689495Y-7595049D01*
X+1708151Y-7576393D01*
X+1708151Y-7591069D01*
G37*
G36*
X+882651Y-6950431D02*
X+882651Y-7686028D01*
X+851974Y-7655351D01*
X+768349Y-7655351D01*
X+768349Y-7648931D01*
X+831849Y-7585431D01*
X+831849Y-6986353D01*
X+857249Y-6960953D01*
X+857249Y-6925029D01*
X+882651Y-6950431D01*
G37*
G36*
X+552505Y-7595049D02*
X+628651Y-7595049D01*
X+628651Y-7686028D01*
X+597974Y-7655351D01*
X+498026Y-7655351D01*
X+427351Y-7726026D01*
X+427351Y-7825974D01*
X+498026Y-7896649D01*
X+597974Y-7896649D01*
X+628651Y-7865972D01*
X+628651Y-8601431D01*
X+1136651Y-9109431D01*
X+1136651Y-9210028D01*
X+1105974Y-9179351D01*
X+1006026Y-9179351D01*
X+935351Y-9250026D01*
X+935351Y-9349974D01*
X+986151Y-9400774D01*
X+986151Y-9581403D01*
X+959969Y-9555221D01*
X+840031Y-9555221D01*
X+769849Y-9625403D01*
X+769849Y-9420649D01*
X+851974Y-9420649D01*
X+922649Y-9349974D01*
X+922649Y-9250026D01*
X+851974Y-9179351D01*
X+769849Y-9179351D01*
X+769849Y-9116569D01*
X+663931Y-9010651D01*
X+484569Y-9010651D01*
X+315869Y-9179351D01*
X+244026Y-9179351D01*
X+173351Y-9250026D01*
X+173351Y-9349974D01*
X+244026Y-9420649D01*
X+343974Y-9420649D01*
X+414649Y-9349974D01*
X+414649Y-9278131D01*
X+427351Y-9265429D01*
X+427351Y-9349974D01*
X+478151Y-9400774D01*
X+478151Y-9715069D01*
X+251969Y-9941251D01*
X+126244Y-9941251D01*
X+33251Y-10034244D01*
X+33251Y-10165756D01*
X+126244Y-10258749D01*
X+257756Y-10258749D01*
X+350749Y-10165756D01*
X+350749Y-10040031D01*
X+617849Y-9772931D01*
X+617849Y-9400774D01*
X+630151Y-9388472D01*
X+630151Y-9945344D01*
X+541251Y-10034244D01*
X+541251Y-10165756D01*
X+634244Y-10258749D01*
X+765756Y-10258749D01*
X+858749Y-10165756D01*
X+858749Y-10034244D01*
X+769849Y-9945344D01*
X+769849Y-9774597D01*
X+840031Y-9844779D01*
X+959969Y-9844779D01*
X+986151Y-9818597D01*
X+986151Y-10356574D01*
X+923569Y-10419156D01*
X+382064Y-10419156D01*
X-40031Y-10841251D01*
X-165756Y-10841251D01*
X-258749Y-10934244D01*
X-258749Y-11065756D01*
X-218354Y-11106151D01*
X-481646Y-11106151D01*
X-441251Y-11065756D01*
X-441251Y-10934244D01*
X-534244Y-10841251D01*
X-665756Y-10841251D01*
X-755651Y-10931146D01*
X-755651Y-9420649D01*
X-672026Y-9420649D01*
X-601351Y-9349974D01*
X-601351Y-9250026D01*
X-672026Y-9179351D01*
X-755651Y-9179351D01*
X-755651Y-8289569D01*
X-882651Y-8162569D01*
X-882651Y-7995569D01*
X-906151Y-7972069D01*
X-906151Y-7876774D01*
X-855351Y-7825974D01*
X-855351Y-7726026D01*
X-872478Y-7708899D01*
X-825522Y-7708899D01*
X-842649Y-7726026D01*
X-842649Y-7825974D01*
X-771974Y-7896649D01*
X-672026Y-7896649D01*
X-601351Y-7825974D01*
X-601351Y-7726026D01*
X-618478Y-7708899D01*
X-571522Y-7708899D01*
X-588649Y-7726026D01*
X-588649Y-7825974D01*
X-517974Y-7896649D01*
X-418026Y-7896649D01*
X-347351Y-7825974D01*
X-347351Y-7768371D01*
X-334649Y-7781073D01*
X-334649Y-7825974D01*
X-302899Y-7857724D01*
X-302899Y-8609323D01*
X-48899Y-8863323D01*
X-48899Y-9218276D01*
X-80649Y-9250026D01*
X-80649Y-9349974D01*
X-48899Y-9381724D01*
X-48899Y-9792323D01*
X-31749Y-9809473D01*
X-31749Y-9818453D01*
X+24047Y-9874249D01*
X+102953Y-9874249D01*
X+158749Y-9818453D01*
X+158749Y-9739547D01*
X+128899Y-9709697D01*
X+128899Y-9381724D01*
X+160649Y-9349974D01*
X+160649Y-9250026D01*
X+128899Y-9218276D01*
X+128899Y-8789677D01*
X-125101Y-8535677D01*
X-125101Y-7857724D01*
X-93351Y-7825974D01*
X-93351Y-7726026D01*
X-164026Y-7655351D01*
X-208927Y-7655351D01*
X-333177Y-7531101D01*
X-1351197Y-7531101D01*
X-1357547Y-7524751D01*
X-1436453Y-7524751D01*
X-1492249Y-7580547D01*
X-1492249Y-7655351D01*
X-1533974Y-7655351D01*
X-1604649Y-7726026D01*
X-1604649Y-7810571D01*
X-1617351Y-7797869D01*
X-1617351Y-7726026D01*
X-1688026Y-7655351D01*
X-1771651Y-7655351D01*
X-1771651Y-7541431D01*
X-1749069Y-7518849D01*
X+476305Y-7518849D01*
X+552505Y-7595049D01*
G37*
%LPC*%
G36*
X-588649Y-9349974D02*
X-588649Y-9250026D01*
X-517974Y-9179351D01*
X-418026Y-9179351D01*
X-347351Y-9250026D01*
X-347351Y-9349974D01*
X-418026Y-9420649D01*
X-517974Y-9420649D01*
X-588649Y-9349974D01*
G37*
G36*
X-334649Y-9349974D02*
X-334649Y-9250026D01*
X-263974Y-9179351D01*
X-164026Y-9179351D01*
X-93351Y-9250026D01*
X-93351Y-9349974D01*
X-164026Y-9420649D01*
X-263974Y-9420649D01*
X-334649Y-9349974D01*
G37*
G36*
X+414649Y-7726026D02*
X+414649Y-7825974D01*
X+343974Y-7896649D01*
X+244026Y-7896649D01*
X+173351Y-7825974D01*
X+173351Y-7726026D01*
X+244026Y-7655351D01*
X+343974Y-7655351D01*
X+414649Y-7726026D01*
G37*
G36*
X+160649Y-7726026D02*
X+160649Y-7825974D01*
X+89974Y-7896649D01*
X-9974Y-7896649D01*
X-80649Y-7825974D01*
X-80649Y-7726026D01*
X-9974Y-7655351D01*
X+89974Y-7655351D01*
X+160649Y-7726026D01*
G37*
%LPD*%
G36*
X+882651Y-8342000D02*
X+882651Y-8370931D01*
X+1240151Y-8728431D01*
X+1240151Y-9015371D01*
X+768349Y-8543569D01*
X+768349Y-7896649D01*
X+851974Y-7896649D01*
X+882651Y-7865972D01*
X+882651Y-8342000D01*
G37*
G36*
X+2406651Y-9210028D02*
X+2375974Y-9179351D01*
X+2304131Y-9179351D01*
X+2292349Y-9167569D01*
X+2292349Y-7896649D01*
X+2375974Y-7896649D01*
X+2406651Y-7865972D01*
X+2406651Y-9210028D01*
G37*
G36*
X+2152651Y-9210028D02*
X+2121974Y-9179351D01*
X+2050131Y-9179351D01*
X+2038349Y-9167569D01*
X+2038349Y-7896649D01*
X+2121974Y-7896649D01*
X+2152651Y-7865972D01*
X+2152651Y-9210028D01*
G37*
G36*
X+1898651Y-9196500D02*
X+1898651Y-9210028D01*
X+1867974Y-9179351D01*
X+1796131Y-9179351D01*
X+1784349Y-9167569D01*
X+1784349Y-7896649D01*
X+1867974Y-7896649D01*
X+1898651Y-7865972D01*
X+1898651Y-9196500D01*
G37*
G36*
X+1644651Y-9196500D02*
X+1644651Y-9210028D01*
X+1613974Y-9179351D01*
X+1530349Y-9179351D01*
X+1530349Y-7896649D01*
X+1613974Y-7896649D01*
X+1644651Y-7865972D01*
X+1644651Y-9196500D01*
G37*
G36*
X-1657349Y-7955431D02*
X-1657349Y-9210028D01*
X-1688026Y-9179351D01*
X-1771651Y-9179351D01*
X-1771651Y-7896649D01*
X-1716131Y-7896649D01*
X-1657349Y-7955431D01*
G37*
G36*
X+630151Y-9174431D02*
X+630151Y-9211528D01*
X+597974Y-9179351D01*
X+513429Y-9179351D01*
X+542431Y-9150349D01*
X+606069Y-9150349D01*
X+630151Y-9174431D01*
G37*
G36*
X+2205351Y-9278131D02*
X+2205351Y-9349974D01*
X+2247028Y-9391651D01*
X+2150972Y-9391651D01*
X+2192649Y-9349974D01*
X+2192649Y-9265429D01*
X+2205351Y-9278131D01*
G37*
G36*
X+1951351Y-9278131D02*
X+1951351Y-9349974D01*
X+1993028Y-9391651D01*
X+1896972Y-9391651D01*
X+1938649Y-9349974D01*
X+1938649Y-9265429D01*
X+1951351Y-9278131D01*
G37*
G36*
X+1697351Y-9278131D02*
X+1697351Y-9349974D01*
X+1739028Y-9391651D01*
X+1642972Y-9391651D01*
X+1684649Y-9349974D01*
X+1684649Y-9265429D01*
X+1697351Y-9278131D01*
G37*
G36*
X+1390651Y-9398000D02*
X+1390651Y-9426931D01*
X+1418871Y-9455151D01*
X+1298931Y-9455151D01*
X+1276349Y-9432569D01*
X+1276349Y-9420649D01*
X+1359974Y-9420649D01*
X+1390651Y-9389972D01*
X+1390651Y-9398000D01*
G37*
G36*
X+2406651Y-9483371D02*
X+2343929Y-9420649D01*
X+2375974Y-9420649D01*
X+2406651Y-9389972D01*
X+2406651Y-9483371D01*
G37*
G36*
X+2279651Y-9553931D02*
X+2279651Y-9573107D01*
X+2260495Y-9553951D01*
X+2152731Y-9553951D01*
X+2130129Y-9531349D01*
X+2257069Y-9531349D01*
X+2279651Y-9553931D01*
G37*
G36*
X+2139505Y-7146049D02*
X+2247269Y-7146049D01*
X+2630151Y-7528931D01*
X+2630151Y-9545344D01*
X+2546349Y-9629146D01*
X+2546349Y-7647569D01*
X+2346049Y-7447269D01*
X+2346049Y-7339505D01*
X+2260495Y-7253951D01*
X+2139505Y-7253951D01*
X+2101849Y-7291607D01*
X+2101849Y-7108393D01*
X+2139505Y-7146049D01*
G37*
G36*
X+1136651Y-9490431D02*
X+1241069Y-9594849D01*
X+1336607Y-9594849D01*
X+1291951Y-9639505D01*
X+1291951Y-9760495D01*
X+1377505Y-9846049D01*
X+1498495Y-9846049D01*
X+1584049Y-9760495D01*
X+1584049Y-9639505D01*
X+1539393Y-9594849D01*
X+1996069Y-9594849D01*
X+2053951Y-9652731D01*
X+2053951Y-9760495D01*
X+2139505Y-9846049D01*
X+2260495Y-9846049D01*
X+2279651Y-9826893D01*
X+2279651Y-10073107D01*
X+2260495Y-10053951D01*
X+2139505Y-10053951D01*
X+2053951Y-10139505D01*
X+2053951Y-10260495D01*
X+2139505Y-10346049D01*
X+2260495Y-10346049D01*
X+2279651Y-10326893D01*
X+2279651Y-10878431D01*
X+2341251Y-10940031D01*
X+2341251Y-11065756D01*
X+2381646Y-11106151D01*
X+2118354Y-11106151D01*
X+2158749Y-11065756D01*
X+2158749Y-10934244D01*
X+2065756Y-10841251D01*
X+1966973Y-10841251D01*
X+1768323Y-10642601D01*
X+1295399Y-10642601D01*
X+1295399Y-10468323D01*
X+1417673Y-10346049D01*
X+1498495Y-10346049D01*
X+1584049Y-10260495D01*
X+1584049Y-10139505D01*
X+1498495Y-10053951D01*
X+1377505Y-10053951D01*
X+1291951Y-10139505D01*
X+1291951Y-10220327D01*
X+1125849Y-10386429D01*
X+1125849Y-9400774D01*
X+1136651Y-9389972D01*
X+1136651Y-9490431D01*
G37*
G36*
X-1657349Y-9493000D02*
X-1657349Y-9521931D01*
X-1561849Y-9617431D01*
X-1561849Y-10741251D01*
X-2152651Y-10741251D01*
X-2152651Y-10436549D01*
X-2044765Y-10436549D01*
X-1966651Y-10358435D01*
X-1966651Y-10247965D01*
X-2013016Y-10201600D01*
X-1966651Y-10155235D01*
X-1966651Y-10044765D01*
X-2013016Y-9998400D01*
X-1966651Y-9952035D01*
X-1966651Y-9862231D01*
X-1771651Y-9667231D01*
X-1771651Y-9420649D01*
X-1688026Y-9420649D01*
X-1657349Y-9389972D01*
X-1657349Y-9493000D01*
G37*
G36*
X+2427110Y-10526890D02*
X+2660651Y-10760431D01*
X+2660651Y-11083569D01*
X+2638069Y-11106151D01*
X+2618354Y-11106151D01*
X+2658749Y-11065756D01*
X+2658749Y-10934244D01*
X+2565756Y-10841251D01*
X+2440031Y-10841251D01*
X+2419349Y-10820569D01*
X+2419349Y-10519129D01*
X+2427110Y-10526890D01*
G37*
G36*
X-718354Y-11106151D02*
X-733069Y-11106151D01*
X-755651Y-11083569D01*
X-755651Y-11068854D01*
X-718354Y-11106151D01*
G37*
D10*
X-100000Y-11000000D02*
X+410995Y-10489005D01*
X+952500Y-10489005D01*
X+1056000Y-10385505D01*
X+1056000Y-9300000D01*
X-317500Y-6794500D02*
X-299000Y-6776000D01*
X-299000Y-6316000D01*
X+762000Y-6921500D02*
X+762000Y-7556500D01*
X+698500Y-7620000D01*
X+698500Y-8572500D01*
X+1206500Y-9080500D01*
X+1206500Y-9461500D01*
X+1270000Y-9525000D01*
X+2025000Y-9525000D01*
X+2200000Y-9700000D01*
X+294000Y-9300000D02*
X+513500Y-9080500D01*
X+635000Y-9080500D01*
X+700000Y-9145500D01*
X+700000Y-10100000D01*
X+192000Y-10100000D02*
X+548000Y-9744000D01*
X+548000Y-9300000D01*
X+613000Y-7449000D02*
X-1778000Y-7449000D01*
X-1841500Y-7512500D01*
X-1841500Y-9638300D01*
X-2100000Y-9896800D01*
X+2154000Y-6246000D02*
X+2154000Y-6096000D01*
X+2090500Y-6032500D01*
X+698500Y-6032500D01*
X+613000Y-6118000D01*
X+613000Y-7041000D01*
X-2100000Y-9896800D02*
X-2222500Y-10019300D01*
X-2222500Y-11049000D01*
X-2159000Y-11112500D01*
X-1238000Y-11112500D01*
X-1238000Y-10900000D01*
X+2154000Y-6246000D02*
X+2192099Y-6207901D01*
X+2192099Y-6096000D01*
X+3111500Y-6096000D01*
X+3216000Y-6200500D01*
X+3216000Y-7000000D01*
X+613000Y-7449000D02*
X+613000Y-7041000D01*
X+3216000Y-7000000D02*
X+3216000Y-7400000D01*
D11*
X+40000Y-9300000D02*
X+40000Y-8826500D01*
X-214000Y-8572500D01*
X-214000Y-7776000D01*
X+1206500Y-10731500D02*
X+1731500Y-10731500D01*
X+2000000Y-11000000D01*
X+1438000Y-10200000D02*
X+1206500Y-10431500D01*
X+1206500Y-10731500D01*
X+1000000Y-11000000D02*
X+1000000Y-10731500D01*
X+1206500Y-10731500D01*
X+40000Y-9300000D02*
X+40000Y-9755500D01*
X+63500Y-9779000D01*
X-214000Y-7776000D02*
X-370000Y-7620000D01*
X-1397000Y-7620000D01*
D10*
X-952500Y-8191500D02*
X-825500Y-8318500D01*
X-825500Y-11112500D01*
X-762000Y-11176000D01*
X+324000Y-11176000D01*
X+500000Y-11000000D01*
X+1460500Y-7366000D02*
X+1460500Y-7209500D01*
X+1629000Y-7041000D01*
X-976000Y-7776000D02*
X-976000Y-8001000D01*
X-952500Y-8024500D01*
X-952500Y-8191500D01*
X+1818000Y-9300000D02*
X+1714500Y-9196500D01*
X+1714500Y-7683500D01*
X+1778000Y-7620000D01*
X+1778000Y-6858000D01*
X+1646000Y-6726000D01*
X+1646000Y-6500000D01*
X+2072000Y-9300000D02*
X+1968500Y-9196500D01*
X+1968500Y-7683500D01*
X+1900000Y-7615000D01*
X+1900000Y-6500000D01*
X+2154000Y-6500000D02*
X+2154000Y-6667500D01*
X+2032000Y-6789500D01*
X+2032000Y-7429500D01*
X+2222500Y-7620000D01*
X+2222500Y-9196500D01*
X+2326000Y-9300000D01*
D12*
X+2476500Y-6921500D02*
X+2408000Y-6853000D01*
X+2408000Y-6500000D01*
D10*
X+2200000Y-7400000D02*
X+2476500Y-7676500D01*
X+2476500Y-10477500D01*
X+2730500Y-10731500D01*
X+2730500Y-11112500D01*
X+2667000Y-11176000D01*
X+1676000Y-11176000D01*
X+1500000Y-11000000D01*
X-2246000Y-7776000D02*
X-2095500Y-7625500D01*
X-2095500Y-6519500D01*
X-2299000Y-6316000D01*
X+2200000Y-7000000D02*
X+2700000Y-7500000D01*
X+2700000Y-9700000D01*
X+1310000Y-9300000D02*
X+1310000Y-8699500D01*
X+952500Y-8342000D01*
X+952500Y-6921500D01*
X+698500Y-6667500D01*
X+698500Y-6159500D01*
X+762000Y-6096000D01*
X+1646000Y-6096000D01*
X+1646000Y-6246000D01*
X+1629000Y-7449000D02*
X+1460500Y-7617500D01*
X+1460500Y-9398000D01*
X+1524000Y-9461500D01*
X+2286000Y-9461500D01*
X+2349500Y-9525000D01*
X+2349500Y-10849500D01*
X+2500000Y-11000000D01*
X-1492000Y-10900000D02*
X-1492000Y-9588500D01*
X-1587500Y-9493000D01*
X-1587500Y-7926500D01*
X-1738000Y-7776000D01*
D13*
X-317500Y-6794500D03*
X+762000Y-6921500D03*
X+63500Y-9779000D03*
X-1397000Y-7620000D03*
X+1460500Y-7366000D03*
X+2476500Y-6921500D03*
D11*
X+3369990Y-11239990D02*
X+2701790Y-11239990D01*
X+2800349Y-11141431D01*
X+2800349Y-10702569D01*
X+2546349Y-10448569D01*
X+2546349Y-10370854D01*
X+2634244Y-10458749D01*
X+2765756Y-10458749D01*
X+2858749Y-10365756D01*
X+2858749Y-10234244D01*
X+2765756Y-10141251D01*
X+2634244Y-10141251D01*
X+2546349Y-10229146D01*
X+2546349Y-9770854D01*
X+2634244Y-9858749D01*
X+2765756Y-9858749D01*
X+2858749Y-9765756D01*
X+2858749Y-9634244D01*
X+2769849Y-9545344D01*
X+2769849Y-7471069D01*
X+2346049Y-7047269D01*
X+2346049Y-6939505D01*
X+2260495Y-6853951D01*
X+2139505Y-6853951D01*
X+2101849Y-6891607D01*
X+2101849Y-6818431D01*
X+2223849Y-6696431D01*
X+2223849Y-6658749D01*
X+2325451Y-6658749D01*
X+2325451Y-6887191D01*
X+2381251Y-6942991D01*
X+2381251Y-6960953D01*
X+2437047Y-7016749D01*
X+2515953Y-7016749D01*
X+2571749Y-6960953D01*
X+2571749Y-6882047D01*
X+2515953Y-6826251D01*
X+2497991Y-6826251D01*
X+2490549Y-6818809D01*
X+2490549Y-6658749D01*
X+2566749Y-6658749D01*
X+2566749Y-6165849D01*
X+2929403Y-6165849D01*
X+2855221Y-6240031D01*
X+2855221Y-6359969D01*
X+2940031Y-6444779D01*
X+3059969Y-6444779D01*
X+3144779Y-6359969D01*
X+3144779Y-6240031D01*
X+3070597Y-6165849D01*
X+3082569Y-6165849D01*
X+3146151Y-6229431D01*
X+3146151Y-6863305D01*
X+3069951Y-6939505D01*
X+3069951Y-7060495D01*
X+3146151Y-7136695D01*
X+3146151Y-7263305D01*
X+3069951Y-7339505D01*
X+3069951Y-7460495D01*
X+3155505Y-7546049D01*
X+3276495Y-7546049D01*
X+3362049Y-7460495D01*
X+3362049Y-7339505D01*
X+3285849Y-7263305D01*
X+3285849Y-7136695D01*
X+3362049Y-7060495D01*
X+3362049Y-6939505D01*
X+3285849Y-6863305D01*
X+3285849Y-6171569D01*
X+3140431Y-6026151D01*
X+2182931Y-6026151D01*
X+2166790Y-6010010D01*
X+3369990Y-6010010D01*
X+3369990Y-11239990D01*
X+3028495Y-8960049D02*
X+2907505Y-8960049D01*
X+2821951Y-8874495D01*
X+2821951Y-8753505D01*
X+2907505Y-8667951D01*
X+3028495Y-8667951D01*
X+3114049Y-8753505D01*
X+3114049Y-8874495D01*
X+3028495Y-8960049D01*
X+3028495Y-7944049D02*
X+2907505Y-7944049D01*
X+2821951Y-7858495D01*
X+2821951Y-7737505D01*
X+2907505Y-7651951D01*
X+3028495Y-7651951D01*
X+3114049Y-7737505D01*
X+3114049Y-7858495D01*
X+3028495Y-7944049D01*
X+3358749Y-10234244D02*
X+3358749Y-10365756D01*
X+3265756Y-10458749D01*
X+3163497Y-10458749D01*
X+3244779Y-10540031D01*
X+3244779Y-10659969D01*
X+3159969Y-10744779D01*
X+3040031Y-10744779D01*
X+2955221Y-10659969D01*
X+2955221Y-10540031D01*
X+3040031Y-10455221D01*
X+3130716Y-10455221D01*
X+3041251Y-10365756D01*
X+3041251Y-10234244D01*
X+3134244Y-10141251D01*
X+3265756Y-10141251D01*
X+3358749Y-10234244D01*
X+3041251Y-9765756D02*
X+3041251Y-9634244D01*
X+3134244Y-9541251D01*
X+3265756Y-9541251D01*
X+3358749Y-9634244D01*
X+3358749Y-9765756D01*
X+3265756Y-9858749D01*
X+3134244Y-9858749D01*
X+3041251Y-9765756D01*
X+2941251Y-11065756D02*
X+2941251Y-10934244D01*
X+3034244Y-10841251D01*
X+3165756Y-10841251D01*
X+3258749Y-10934244D01*
X+3258749Y-11065756D01*
X+3165756Y-11158749D01*
X+3034244Y-11158749D01*
X+2941251Y-11065756D01*
X+563610Y-6068610D02*
X+543151Y-6089069D01*
X+543151Y-6904305D01*
X+466951Y-6980505D01*
X+466951Y-7101495D01*
X+543151Y-7177695D01*
X+543151Y-7312305D01*
X+476305Y-7379151D01*
X-1806931Y-7379151D01*
X-1911349Y-7483569D01*
X-1911349Y-7686028D01*
X-1942026Y-7655351D01*
X-2026571Y-7655351D01*
X-2025651Y-7654431D01*
X-2025651Y-6490569D01*
X-2119397Y-6396823D01*
X-2114851Y-6392277D01*
X-2114851Y-6239723D01*
X-2222723Y-6131851D01*
X-2375277Y-6131851D01*
X-2483149Y-6239723D01*
X-2483149Y-6392277D01*
X-2375277Y-6500149D01*
X-2222723Y-6500149D01*
X-2218177Y-6495603D01*
X-2165349Y-6548431D01*
X-2165349Y-6948685D01*
X-2222723Y-6891311D01*
X-2375277Y-6891311D01*
X-2483149Y-6999183D01*
X-2483149Y-7151737D01*
X-2375277Y-7259609D01*
X-2222723Y-7259609D01*
X-2165349Y-7202235D01*
X-2165349Y-7596569D01*
X-2224131Y-7655351D01*
X-2295974Y-7655351D01*
X-2366649Y-7726026D01*
X-2366649Y-7825974D01*
X-2295974Y-7896649D01*
X-2196026Y-7896649D01*
X-2125351Y-7825974D01*
X-2125351Y-7754131D01*
X-2112649Y-7741429D01*
X-2112649Y-7825974D01*
X-2041974Y-7896649D01*
X-1942026Y-7896649D01*
X-1911349Y-7865972D01*
X-1911349Y-9210028D01*
X-1942026Y-9179351D01*
X-2041974Y-9179351D01*
X-2112649Y-9250026D01*
X-2112649Y-9349974D01*
X-2041974Y-9420649D01*
X-1942026Y-9420649D01*
X-1911349Y-9389972D01*
X-1911349Y-9609369D01*
X-2065431Y-9763451D01*
X-2155235Y-9763451D01*
X-2233349Y-9841565D01*
X-2233349Y-9931369D01*
X-2292349Y-9990369D01*
X-2292349Y-10502903D01*
X-2340031Y-10455221D01*
X-2459969Y-10455221D01*
X-2544779Y-10540031D01*
X-2544779Y-10659969D01*
X-2463497Y-10741251D01*
X-2912749Y-10741251D01*
X-2912749Y-11058749D01*
X-2341251Y-11058749D01*
X-2341251Y-10744779D01*
X-2340031Y-10744779D01*
X-2292349Y-10697097D01*
X-2292349Y-11077931D01*
X-2187931Y-11182349D01*
X-1209069Y-11182349D01*
X-1168151Y-11141431D01*
X-1168151Y-11058749D01*
X-1079251Y-11058749D01*
X-1079251Y-10741251D01*
X-1422151Y-10741251D01*
X-1422151Y-9559569D01*
X-1517651Y-9464069D01*
X-1517651Y-9420649D01*
X-1434026Y-9420649D01*
X-1363351Y-9349974D01*
X-1363351Y-9250026D01*
X-1434026Y-9179351D01*
X-1517651Y-9179351D01*
X-1517651Y-7897569D01*
X-1518571Y-7896649D01*
X-1434026Y-7896649D01*
X-1363351Y-7825974D01*
X-1363351Y-7726026D01*
X-1374128Y-7715249D01*
X-1357547Y-7715249D01*
X-1351197Y-7708899D01*
X-1333522Y-7708899D01*
X-1350649Y-7726026D01*
X-1350649Y-7825974D01*
X-1279974Y-7896649D01*
X-1180026Y-7896649D01*
X-1109351Y-7825974D01*
X-1109351Y-7726026D01*
X-1126478Y-7708899D01*
X-1079522Y-7708899D01*
X-1096649Y-7726026D01*
X-1096649Y-7825974D01*
X-1045849Y-7876774D01*
X-1045849Y-8029931D01*
X-1022349Y-8053431D01*
X-1022349Y-8220432D01*
X-981431Y-8261349D01*
X-895349Y-8347431D01*
X-895349Y-9210028D01*
X-926026Y-9179351D01*
X-1025974Y-9179351D01*
X-1096649Y-9250026D01*
X-1096649Y-9349974D01*
X-1025974Y-9420649D01*
X-926026Y-9420649D01*
X-895349Y-9389972D01*
X-895349Y-11141431D01*
X-796790Y-11239990D01*
X-3019990Y-11239990D01*
X-3019990Y-6010010D01*
X+622210Y-6010010D01*
X+563610Y-6068610D01*
X-2620649Y-9179351D02*
X-2379351Y-9179351D01*
X-2379351Y-9420649D01*
X-2620649Y-9420649D01*
X-2620649Y-9179351D01*
X-2366649Y-9349974D02*
X-2366649Y-9250026D01*
X-2295974Y-9179351D01*
X-2196026Y-9179351D01*
X-2125351Y-9250026D01*
X-2125351Y-9349974D01*
X-2196026Y-9420649D01*
X-2295974Y-9420649D01*
X-2366649Y-9349974D01*
X-1350649Y-9349974D02*
X-1350649Y-9250026D01*
X-1279974Y-9179351D01*
X-1180026Y-9179351D01*
X-1109351Y-9250026D01*
X-1109351Y-9349974D01*
X-1180026Y-9420649D01*
X-1279974Y-9420649D01*
X-1350649Y-9349974D01*
X-2379351Y-7726026D02*
X-2379351Y-7825974D01*
X-2450026Y-7896649D01*
X-2549974Y-7896649D01*
X-2620649Y-7825974D01*
X-2620649Y-7726026D01*
X-2549974Y-7655351D01*
X-2450026Y-7655351D01*
X-2379351Y-7726026D01*
X-114851Y-6239723D02*
X-114851Y-6392277D01*
X-222723Y-6500149D01*
X-229151Y-6500149D01*
X-229151Y-6748147D01*
X-222251Y-6755047D01*
X-222251Y-6833953D01*
X-278047Y-6889749D01*
X-356953Y-6889749D01*
X-412749Y-6833953D01*
X-412749Y-6755047D01*
X-368849Y-6711147D01*
X-368849Y-6500149D01*
X-375277Y-6500149D01*
X-483149Y-6392277D01*
X-483149Y-6239723D01*
X-375277Y-6131851D01*
X-222723Y-6131851D01*
X-114851Y-6239723D01*
X-833149Y-7142277D02*
X-833149Y-6989723D01*
X-725277Y-6881851D01*
X-572723Y-6881851D01*
X-464851Y-6989723D01*
X-464851Y-7142277D01*
X-572723Y-7250149D01*
X-725277Y-7250149D01*
X-833149Y-7142277D01*
X-133149Y-7142277D02*
X-133149Y-6989723D01*
X-25277Y-6881851D01*
X+127277Y-6881851D01*
X+235149Y-6989723D01*
X+235149Y-7142277D01*
X+127277Y-7250149D01*
X-25277Y-7250149D01*
X-133149Y-7142277D01*
X-2604421Y-6218989D02*
X-2604421Y-6381011D01*
X-2718989Y-6495579D01*
X-2881011Y-6495579D01*
X-2995579Y-6381011D01*
X-2995579Y-6218989D01*
X-2881011Y-6104421D01*
X-2718989Y-6104421D01*
X-2604421Y-6218989D01*
X-1952399Y-6347601D02*
X-1647601Y-6347601D01*
X-1647601Y-6652399D01*
X-1952399Y-6652399D01*
X-1952399Y-6347601D01*
X+1117601Y-10431500D02*
X+1117601Y-10642601D01*
X+963177Y-10642601D01*
X+911101Y-10694677D01*
X+911101Y-10864394D01*
X+841251Y-10934244D01*
X+841251Y-11065756D01*
X+934244Y-11158749D01*
X+1065756Y-11158749D01*
X+1158749Y-11065756D01*
X+1158749Y-10934244D01*
X+1088899Y-10864394D01*
X+1088899Y-10820399D01*
X+1694677Y-10820399D01*
X+1841251Y-10966973D01*
X+1841251Y-11065756D01*
X+1881646Y-11106151D01*
X+1704931Y-11106151D01*
X+1658749Y-11059969D01*
X+1658749Y-10934244D01*
X+1565756Y-10841251D01*
X+1434244Y-10841251D01*
X+1341251Y-10934244D01*
X+1341251Y-11065756D01*
X+1434244Y-11158749D01*
X+1559969Y-11158749D01*
X+1641210Y-11239990D01*
X+358790Y-11239990D01*
X+440031Y-11158749D01*
X+565756Y-11158749D01*
X+658749Y-11065756D01*
X+658749Y-10934244D01*
X+565756Y-10841251D01*
X+434244Y-10841251D01*
X+341251Y-10934244D01*
X+341251Y-11059969D01*
X+295069Y-11106151D01*
X+18354Y-11106151D01*
X+58749Y-11065756D01*
X+58749Y-10940031D01*
X+439926Y-10558854D01*
X+981431Y-10558854D01*
X+1117601Y-10422684D01*
X+1117601Y-10431500D01*
X+1969849Y-6752871D02*
X+1969849Y-6658749D01*
X+2063971Y-6658749D01*
X+1969849Y-6752871D01*
X+1830151Y-6811371D02*
X+1715849Y-6697069D01*
X+1715849Y-6658749D01*
X+1830151Y-6658749D01*
X+1830151Y-6811371D01*
X+758471Y-6826251D02*
X+722547Y-6826251D01*
X+682849Y-6865949D01*
X+682849Y-6750629D01*
X+758471Y-6826251D01*
X+1576151Y-6726000D02*
X+1576151Y-6754931D01*
X+1708151Y-6886931D01*
X+1708151Y-6913607D01*
X+1689495Y-6894951D01*
X+1568505Y-6894951D01*
X+1482951Y-6980505D01*
X+1482951Y-7088269D01*
X+1390651Y-7180569D01*
X+1390651Y-7301147D01*
X+1365251Y-7326547D01*
X+1365251Y-7405453D01*
X+1421047Y-7461249D01*
X+1482951Y-7461249D01*
X+1482951Y-7496269D01*
X+1390651Y-7588569D01*
X+1390651Y-7686028D01*
X+1359974Y-7655351D01*
X+1260026Y-7655351D01*
X+1189351Y-7726026D01*
X+1189351Y-7825974D01*
X+1260026Y-7896649D01*
X+1359974Y-7896649D01*
X+1390651Y-7865972D01*
X+1390651Y-9210028D01*
X+1379849Y-9199226D01*
X+1379849Y-8670569D01*
X+1022349Y-8313069D01*
X+1022349Y-7896649D01*
X+1105974Y-7896649D01*
X+1176649Y-7825974D01*
X+1176649Y-7726026D01*
X+1105974Y-7655351D01*
X+1022349Y-7655351D01*
X+1022349Y-6892569D01*
X+788529Y-6658749D01*
X+1576151Y-6658749D01*
X+1576151Y-6726000D01*
X+1708151Y-7321607D02*
X+1689495Y-7302951D01*
X+1568505Y-7302951D01*
X+1550329Y-7321127D01*
X+1530349Y-7301147D01*
X+1530349Y-7238431D01*
X+1581731Y-7187049D01*
X+1689495Y-7187049D01*
X+1708151Y-7168393D01*
X+1708151Y-7321607D01*
X+692151Y-7321607D02*
X+682849Y-7312305D01*
X+682849Y-7177695D01*
X+692151Y-7168393D01*
X+692151Y-7321607D01*
X+2356571Y-7655351D02*
X+2292349Y-7655351D01*
X+2292349Y-7591129D01*
X+2356571Y-7655351D01*
X+1841571Y-7655351D02*
X+1841429Y-7655351D01*
X+1841500Y-7655280D01*
X+1841571Y-7655351D01*
X+1982610Y-7478890D02*
X+2152651Y-7648931D01*
X+2152651Y-7686028D01*
X+2121974Y-7655351D01*
X+2038349Y-7655351D01*
X+2038349Y-7654569D01*
X+1969849Y-7586069D01*
X+1969849Y-7466129D01*
X+1982610Y-7478890D01*
X+1708151Y-7591069D02*
X+1644651Y-7654569D01*
X+1644651Y-7686028D01*
X+1613974Y-7655351D01*
X+1530349Y-7655351D01*
X+1530349Y-7646431D01*
X+1581731Y-7595049D01*
X+1689495Y-7595049D01*
X+1708151Y-7576393D01*
X+1708151Y-7591069D01*
X+882651Y-6950431D02*
X+882651Y-7686028D01*
X+851974Y-7655351D01*
X+768349Y-7655351D01*
X+768349Y-7648931D01*
X+831849Y-7585431D01*
X+831849Y-6986353D01*
X+857249Y-6960953D01*
X+857249Y-6925029D01*
X+882651Y-6950431D01*
X+552505Y-7595049D02*
X+628651Y-7595049D01*
X+628651Y-7686028D01*
X+597974Y-7655351D01*
X+498026Y-7655351D01*
X+427351Y-7726026D01*
X+427351Y-7825974D01*
X+498026Y-7896649D01*
X+597974Y-7896649D01*
X+628651Y-7865972D01*
X+628651Y-8601431D01*
X+1136651Y-9109431D01*
X+1136651Y-9210028D01*
X+1105974Y-9179351D01*
X+1006026Y-9179351D01*
X+935351Y-9250026D01*
X+935351Y-9349974D01*
X+986151Y-9400774D01*
X+986151Y-9581403D01*
X+959969Y-9555221D01*
X+840031Y-9555221D01*
X+769849Y-9625403D01*
X+769849Y-9420649D01*
X+851974Y-9420649D01*
X+922649Y-9349974D01*
X+922649Y-9250026D01*
X+851974Y-9179351D01*
X+769849Y-9179351D01*
X+769849Y-9116569D01*
X+663931Y-9010651D01*
X+484569Y-9010651D01*
X+315869Y-9179351D01*
X+244026Y-9179351D01*
X+173351Y-9250026D01*
X+173351Y-9349974D01*
X+244026Y-9420649D01*
X+343974Y-9420649D01*
X+414649Y-9349974D01*
X+414649Y-9278131D01*
X+427351Y-9265429D01*
X+427351Y-9349974D01*
X+478151Y-9400774D01*
X+478151Y-9715069D01*
X+251969Y-9941251D01*
X+126244Y-9941251D01*
X+33251Y-10034244D01*
X+33251Y-10165756D01*
X+126244Y-10258749D01*
X+257756Y-10258749D01*
X+350749Y-10165756D01*
X+350749Y-10040031D01*
X+617849Y-9772931D01*
X+617849Y-9400774D01*
X+630151Y-9388472D01*
X+630151Y-9945344D01*
X+541251Y-10034244D01*
X+541251Y-10165756D01*
X+634244Y-10258749D01*
X+765756Y-10258749D01*
X+858749Y-10165756D01*
X+858749Y-10034244D01*
X+769849Y-9945344D01*
X+769849Y-9774597D01*
X+840031Y-9844779D01*
X+959969Y-9844779D01*
X+986151Y-9818597D01*
X+986151Y-10356574D01*
X+923569Y-10419156D01*
X+382064Y-10419156D01*
X-40031Y-10841251D01*
X-165756Y-10841251D01*
X-258749Y-10934244D01*
X-258749Y-11065756D01*
X-218354Y-11106151D01*
X-481646Y-11106151D01*
X-441251Y-11065756D01*
X-441251Y-10934244D01*
X-534244Y-10841251D01*
X-665756Y-10841251D01*
X-755651Y-10931146D01*
X-755651Y-9420649D01*
X-672026Y-9420649D01*
X-601351Y-9349974D01*
X-601351Y-9250026D01*
X-672026Y-9179351D01*
X-755651Y-9179351D01*
X-755651Y-8289569D01*
X-882651Y-8162569D01*
X-882651Y-7995569D01*
X-906151Y-7972069D01*
X-906151Y-7876774D01*
X-855351Y-7825974D01*
X-855351Y-7726026D01*
X-872478Y-7708899D01*
X-825522Y-7708899D01*
X-842649Y-7726026D01*
X-842649Y-7825974D01*
X-771974Y-7896649D01*
X-672026Y-7896649D01*
X-601351Y-7825974D01*
X-601351Y-7726026D01*
X-618478Y-7708899D01*
X-571522Y-7708899D01*
X-588649Y-7726026D01*
X-588649Y-7825974D01*
X-517974Y-7896649D01*
X-418026Y-7896649D01*
X-347351Y-7825974D01*
X-347351Y-7768371D01*
X-334649Y-7781073D01*
X-334649Y-7825974D01*
X-302899Y-7857724D01*
X-302899Y-8609323D01*
X-48899Y-8863323D01*
X-48899Y-9218276D01*
X-80649Y-9250026D01*
X-80649Y-9349974D01*
X-48899Y-9381724D01*
X-48899Y-9792323D01*
X-31749Y-9809473D01*
X-31749Y-9818453D01*
X+24047Y-9874249D01*
X+102953Y-9874249D01*
X+158749Y-9818453D01*
X+158749Y-9739547D01*
X+128899Y-9709697D01*
X+128899Y-9381724D01*
X+160649Y-9349974D01*
X+160649Y-9250026D01*
X+128899Y-9218276D01*
X+128899Y-8789677D01*
X-125101Y-8535677D01*
X-125101Y-7857724D01*
X-93351Y-7825974D01*
X-93351Y-7726026D01*
X-164026Y-7655351D01*
X-208927Y-7655351D01*
X-333177Y-7531101D01*
X-1351197Y-7531101D01*
X-1357547Y-7524751D01*
X-1436453Y-7524751D01*
X-1492249Y-7580547D01*
X-1492249Y-7655351D01*
X-1533974Y-7655351D01*
X-1604649Y-7726026D01*
X-1604649Y-7810571D01*
X-1617351Y-7797869D01*
X-1617351Y-7726026D01*
X-1688026Y-7655351D01*
X-1771651Y-7655351D01*
X-1771651Y-7541431D01*
X-1749069Y-7518849D01*
X+476305Y-7518849D01*
X+552505Y-7595049D01*
X-588649Y-9349974D02*
X-588649Y-9250026D01*
X-517974Y-9179351D01*
X-418026Y-9179351D01*
X-347351Y-9250026D01*
X-347351Y-9349974D01*
X-418026Y-9420649D01*
X-517974Y-9420649D01*
X-588649Y-9349974D01*
X-334649Y-9349974D02*
X-334649Y-9250026D01*
X-263974Y-9179351D01*
X-164026Y-9179351D01*
X-93351Y-9250026D01*
X-93351Y-9349974D01*
X-164026Y-9420649D01*
X-263974Y-9420649D01*
X-334649Y-9349974D01*
X+414649Y-7726026D02*
X+414649Y-7825974D01*
X+343974Y-7896649D01*
X+244026Y-7896649D01*
X+173351Y-7825974D01*
X+173351Y-7726026D01*
X+244026Y-7655351D01*
X+343974Y-7655351D01*
X+414649Y-7726026D01*
X+160649Y-7726026D02*
X+160649Y-7825974D01*
X+89974Y-7896649D01*
X-9974Y-7896649D01*
X-80649Y-7825974D01*
X-80649Y-7726026D01*
X-9974Y-7655351D01*
X+89974Y-7655351D01*
X+160649Y-7726026D01*
X+882651Y-8342000D02*
X+882651Y-8370931D01*
X+1240151Y-8728431D01*
X+1240151Y-9015371D01*
X+768349Y-8543569D01*
X+768349Y-7896649D01*
X+851974Y-7896649D01*
X+882651Y-7865972D01*
X+882651Y-8342000D01*
X+2406651Y-9210028D02*
X+2375974Y-9179351D01*
X+2304131Y-9179351D01*
X+2292349Y-9167569D01*
X+2292349Y-7896649D01*
X+2375974Y-7896649D01*
X+2406651Y-7865972D01*
X+2406651Y-9210028D01*
X+2152651Y-9210028D02*
X+2121974Y-9179351D01*
X+2050131Y-9179351D01*
X+2038349Y-9167569D01*
X+2038349Y-7896649D01*
X+2121974Y-7896649D01*
X+2152651Y-7865972D01*
X+2152651Y-9210028D01*
X+1898651Y-9196500D02*
X+1898651Y-9210028D01*
X+1867974Y-9179351D01*
X+1796131Y-9179351D01*
X+1784349Y-9167569D01*
X+1784349Y-7896649D01*
X+1867974Y-7896649D01*
X+1898651Y-7865972D01*
X+1898651Y-9196500D01*
X+1644651Y-9196500D02*
X+1644651Y-9210028D01*
X+1613974Y-9179351D01*
X+1530349Y-9179351D01*
X+1530349Y-7896649D01*
X+1613974Y-7896649D01*
X+1644651Y-7865972D01*
X+1644651Y-9196500D01*
X-1657349Y-7955431D02*
X-1657349Y-9210028D01*
X-1688026Y-9179351D01*
X-1771651Y-9179351D01*
X-1771651Y-7896649D01*
X-1716131Y-7896649D01*
X-1657349Y-7955431D01*
X+630151Y-9174431D02*
X+630151Y-9211528D01*
X+597974Y-9179351D01*
X+513429Y-9179351D01*
X+542431Y-9150349D01*
X+606069Y-9150349D01*
X+630151Y-9174431D01*
X+2205351Y-9278131D02*
X+2205351Y-9349974D01*
X+2247028Y-9391651D01*
X+2150972Y-9391651D01*
X+2192649Y-9349974D01*
X+2192649Y-9265429D01*
X+2205351Y-9278131D01*
X+1951351Y-9278131D02*
X+1951351Y-9349974D01*
X+1993028Y-9391651D01*
X+1896972Y-9391651D01*
X+1938649Y-9349974D01*
X+1938649Y-9265429D01*
X+1951351Y-9278131D01*
X+1697351Y-9278131D02*
X+1697351Y-9349974D01*
X+1739028Y-9391651D01*
X+1642972Y-9391651D01*
X+1684649Y-9349974D01*
X+1684649Y-9265429D01*
X+1697351Y-9278131D01*
X+1390651Y-9398000D02*
X+1390651Y-9426931D01*
X+1418871Y-9455151D01*
X+1298931Y-9455151D01*
X+1276349Y-9432569D01*
X+1276349Y-9420649D01*
X+1359974Y-9420649D01*
X+1390651Y-9389972D01*
X+1390651Y-9398000D01*
X+2406651Y-9483371D02*
X+2343929Y-9420649D01*
X+2375974Y-9420649D01*
X+2406651Y-9389972D01*
X+2406651Y-9483371D01*
X+2279651Y-9553931D02*
X+2279651Y-9573107D01*
X+2260495Y-9553951D01*
X+2152731Y-9553951D01*
X+2130129Y-9531349D01*
X+2257069Y-9531349D01*
X+2279651Y-9553931D01*
X+2139505Y-7146049D02*
X+2247269Y-7146049D01*
X+2630151Y-7528931D01*
X+2630151Y-9545344D01*
X+2546349Y-9629146D01*
X+2546349Y-7647569D01*
X+2346049Y-7447269D01*
X+2346049Y-7339505D01*
X+2260495Y-7253951D01*
X+2139505Y-7253951D01*
X+2101849Y-7291607D01*
X+2101849Y-7108393D01*
X+2139505Y-7146049D01*
X+1136651Y-9490431D02*
X+1241069Y-9594849D01*
X+1336607Y-9594849D01*
X+1291951Y-9639505D01*
X+1291951Y-9760495D01*
X+1377505Y-9846049D01*
X+1498495Y-9846049D01*
X+1584049Y-9760495D01*
X+1584049Y-9639505D01*
X+1539393Y-9594849D01*
X+1996069Y-9594849D01*
X+2053951Y-9652731D01*
X+2053951Y-9760495D01*
X+2139505Y-9846049D01*
X+2260495Y-9846049D01*
X+2279651Y-9826893D01*
X+2279651Y-10073107D01*
X+2260495Y-10053951D01*
X+2139505Y-10053951D01*
X+2053951Y-10139505D01*
X+2053951Y-10260495D01*
X+2139505Y-10346049D01*
X+2260495Y-10346049D01*
X+2279651Y-10326893D01*
X+2279651Y-10878431D01*
X+2341251Y-10940031D01*
X+2341251Y-11065756D01*
X+2381646Y-11106151D01*
X+2118354Y-11106151D01*
X+2158749Y-11065756D01*
X+2158749Y-10934244D01*
X+2065756Y-10841251D01*
X+1966973Y-10841251D01*
X+1768323Y-10642601D01*
X+1295399Y-10642601D01*
X+1295399Y-10468323D01*
X+1417673Y-10346049D01*
X+1498495Y-10346049D01*
X+1584049Y-10260495D01*
X+1584049Y-10139505D01*
X+1498495Y-10053951D01*
X+1377505Y-10053951D01*
X+1291951Y-10139505D01*
X+1291951Y-10220327D01*
X+1125849Y-10386429D01*
X+1125849Y-9400774D01*
X+1136651Y-9389972D01*
X+1136651Y-9490431D01*
X-1657349Y-9493000D02*
X-1657349Y-9521931D01*
X-1561849Y-9617431D01*
X-1561849Y-10741251D01*
X-2152651Y-10741251D01*
X-2152651Y-10436549D01*
X-2044765Y-10436549D01*
X-1966651Y-10358435D01*
X-1966651Y-10247965D01*
X-2013016Y-10201600D01*
X-1966651Y-10155235D01*
X-1966651Y-10044765D01*
X-2013016Y-9998400D01*
X-1966651Y-9952035D01*
X-1966651Y-9862231D01*
X-1771651Y-9667231D01*
X-1771651Y-9420649D01*
X-1688026Y-9420649D01*
X-1657349Y-9389972D01*
X-1657349Y-9493000D01*
X+2427110Y-10526890D02*
X+2660651Y-10760431D01*
X+2660651Y-11083569D01*
X+2638069Y-11106151D01*
X+2618354Y-11106151D01*
X+2658749Y-11065756D01*
X+2658749Y-10934244D01*
X+2565756Y-10841251D01*
X+2440031Y-10841251D01*
X+2419349Y-10820569D01*
X+2419349Y-10519129D01*
X+2427110Y-10526890D01*
X-718354Y-11106151D02*
X-733069Y-11106151D01*
X-755651Y-11083569D01*
X-755651Y-11068854D01*
X-718354Y-11106151D01*
D14*
X-2500000Y-9300000D03*
D15*
X-2246000Y-9300000D03*
X-1992000Y-9300000D03*
X-1738000Y-9300000D03*
X-1484000Y-9300000D03*
X-1230000Y-9300000D03*
X-976000Y-9300000D03*
X-722000Y-9300000D03*
X-468000Y-9300000D03*
X-214000Y-9300000D03*
X+40000Y-9300000D03*
X+294000Y-9300000D03*
X+548000Y-9300000D03*
X+802000Y-9300000D03*
X+1056000Y-9300000D03*
X+1310000Y-9300000D03*
X+1564000Y-9300000D03*
X+1818000Y-9300000D03*
X+2072000Y-9300000D03*
X+2326000Y-9300000D03*
X+2326000Y-7776000D03*
X+2072000Y-7776000D03*
X+1818000Y-7776000D03*
X+1564000Y-7776000D03*
X+1310000Y-7776000D03*
X+1056000Y-7776000D03*
X+802000Y-7776000D03*
X+548000Y-7776000D03*
X+294000Y-7776000D03*
X+40000Y-7776000D03*
X-214000Y-7776000D03*
X-468000Y-7776000D03*
X-722000Y-7776000D03*
X-976000Y-7776000D03*
X-1230000Y-7776000D03*
X-1484000Y-7776000D03*
X-1738000Y-7776000D03*
X-1992000Y-7776000D03*
X-2246000Y-7776000D03*
X-2500000Y-7776000D03*
D16*
X-2299000Y-7075460D03*
X-2299000Y-6316000D03*
X-299000Y-6316000D03*
X-649000Y-7066000D03*
X+51000Y-7066000D03*
D17*
X+2408000Y-6246000D03*
X+2154000Y-6246000D03*
X+1900000Y-6246000D03*
X+1646000Y-6246000D03*
X+1392000Y-6246000D03*
X+1138000Y-6246000D03*
X+884000Y-6246000D03*
X+884000Y-6500000D03*
X+1138000Y-6500000D03*
X+1392000Y-6500000D03*
X+1646000Y-6500000D03*
X+1900000Y-6500000D03*
X+2154000Y-6500000D03*
X+2408000Y-6500000D03*
D18*
X+700000Y-10100000D03*
X+192000Y-10100000D03*
D17*
X-1238000Y-10900000D03*
X-1492000Y-10900000D03*
X-1746000Y-10900000D03*
X-2000000Y-10900000D03*
D19*
X+2200000Y-7000000D03*
X+3216000Y-7000000D03*
X+1629000Y-7449000D03*
X+613000Y-7449000D03*
X+1629000Y-7041000D03*
X+613000Y-7041000D03*
X+2200000Y-7400000D03*
X+3216000Y-7400000D03*
X+2200000Y-10200000D03*
X+1438000Y-10200000D03*
D70*
X-2100000Y-10303200D03*
X-2100000Y-10100000D03*
X-2100000Y-9896800D03*
D19*
X+2968000Y-8814000D03*
X+2968000Y-7798000D03*
D17*
X-2500000Y-10900000D03*
X-2754000Y-10900000D03*
D19*
X+2200000Y-9700000D03*
X+1438000Y-9700000D03*
D18*
X-600000Y-11000000D03*
X-100000Y-11000000D03*
X+500000Y-11000000D03*
X+1000000Y-11000000D03*
X+1500000Y-11000000D03*
X+2000000Y-11000000D03*
X+2500000Y-11000000D03*
X+2700000Y-10300000D03*
X+2700000Y-9700000D03*
X+3200000Y-10300000D03*
X+3200000Y-9700000D03*
X+3100000Y-11000000D03*
D20*
X+3000000Y-6300000D03*
X-2400000Y-10600000D03*
X+3100000Y-10600000D03*
X+900000Y-9700000D03*
X-2800000Y-6300000D03*
D21*
X-1800000Y-6500000D03*
D22*
X-3100000Y-11320000D02*
X+3450000Y-11320000D01*
X+3450000Y-5930000D01*
X-3100000Y-5930000D01*
X-3100000Y-11320000D01*
M02*
