G04 PROTEUS GERBER X2 FILE*
%TF.GenerationSoftware,Labcenter,Proteus,8.12-SP0-Build30713*%
%TF.CreationDate,2026-02-26T21:06:46+00:00*%
%TF.FileFunction,Copper,L1,Top*%
%TF.FilePolarity,Positive*%
%TF.Part,Single*%
%TF.SameCoordinates,{51ee9faf-3038-45e6-b8f9-ac6adacc2bd9}*%
%FSLAX45Y45*%
%MOMM*%
G01*
%TA.AperFunction,Conductor*%
%ADD10C,0.254000*%
%ADD11C,0.635000*%
%TA.AperFunction,ViaPad*%
%ADD12C,0.762000*%
%TA.AperFunction,ComponentPad*%
%ADD13R,1.270000X1.270000*%
%ADD14C,1.270000*%
%TA.AperFunction,ComponentPad*%
%ADD15C,2.540000*%
%TA.AperFunction,ComponentPad*%
%ADD16R,2.032000X2.032000*%
%TA.AperFunction,ComponentPad*%
%ADD17C,2.032000*%
%ADD18C,1.778000*%
%TA.AperFunction,ComponentPad*%
%ADD19C,1.524000*%
%TA.AperFunction,SMDPad,CuDef*%
%ADD70R,1.803400X1.143000*%
%TA.AperFunction,Profile*%
%ADD71C,0.203200*%
%TD.AperFunction*%
G36*
X+3369990Y-6700210D02*
X+3330931Y-6661151D01*
X+727431Y-6661151D01*
X+704849Y-6638569D01*
X+704849Y-6251931D01*
X+725251Y-6231529D01*
X+725251Y-6658749D01*
X+2566749Y-6658749D01*
X+2566749Y-6087251D01*
X+2496899Y-6087251D01*
X+2496899Y-6010010D01*
X+3369990Y-6010010D01*
X+3369990Y-6700210D01*
G37*
G36*
X-1841783Y-6986561D02*
X-2127473Y-6986561D01*
X-2222723Y-6891311D01*
X-2375277Y-6891311D01*
X-2483149Y-6999183D01*
X-2483149Y-7151737D01*
X-2375277Y-7259609D01*
X-2222723Y-7259609D01*
X-2127473Y-7164359D01*
X-1930399Y-7164359D01*
X-1930399Y-7623177D01*
X-1953899Y-7646677D01*
X-1953899Y-7655351D01*
X-2025651Y-7655351D01*
X-2025651Y-7654569D01*
X-2130069Y-7550151D01*
X-2632431Y-7550151D01*
X-2736849Y-7654569D01*
X-2736849Y-9561931D01*
X-2233349Y-10065431D01*
X-2233349Y-10155235D01*
X-2186984Y-10201600D01*
X-2218735Y-10233351D01*
X-2695931Y-10233351D01*
X-2823849Y-10361269D01*
X-2823849Y-10741251D01*
X-2912749Y-10741251D01*
X-2912749Y-11058749D01*
X-2341251Y-11058749D01*
X-2341251Y-10988898D01*
X-2322824Y-10988898D01*
X-2322823Y-10988899D01*
X-2158749Y-10988899D01*
X-2158749Y-11058749D01*
X-1104899Y-11058749D01*
X-1104899Y-11149323D01*
X-1014232Y-11239990D01*
X-3019990Y-11239990D01*
X-3019990Y-6010010D01*
X-865232Y-6010010D01*
X-1841783Y-6986561D01*
G37*
%LPC*%
G36*
X-2483149Y-6392277D02*
X-2483149Y-6239723D01*
X-2375277Y-6131851D01*
X-2222723Y-6131851D01*
X-2114851Y-6239723D01*
X-2114851Y-6392277D01*
X-2222723Y-6500149D01*
X-2375277Y-6500149D01*
X-2483149Y-6392277D01*
G37*
%LPD*%
G36*
X+3369990Y-11239990D02*
X+885732Y-11239990D01*
X+966973Y-11158749D01*
X+1065756Y-11158749D01*
X+1158749Y-11065756D01*
X+1158749Y-10934244D01*
X+1065756Y-10841251D01*
X+934244Y-10841251D01*
X+841251Y-10934244D01*
X+841251Y-11033027D01*
X+723677Y-11150601D01*
X+573904Y-11150601D01*
X+658749Y-11065756D01*
X+658749Y-10934244D01*
X+565756Y-10841251D01*
X+434244Y-10841251D01*
X+341251Y-10934244D01*
X+341251Y-11065756D01*
X+426096Y-11150601D01*
X-26096Y-11150601D01*
X+58749Y-11065756D01*
X+58749Y-10934244D01*
X-34244Y-10841251D01*
X-165756Y-10841251D01*
X-258749Y-10934244D01*
X-258749Y-11065756D01*
X-173904Y-11150601D01*
X-526096Y-11150601D01*
X-441251Y-11065756D01*
X-441251Y-10940031D01*
X-175569Y-10674349D01*
X+473431Y-10674349D01*
X+577849Y-10569931D01*
X+577849Y-10202354D01*
X+634244Y-10258749D01*
X+765756Y-10258749D01*
X+858749Y-10165756D01*
X+858749Y-10034244D01*
X+765756Y-9941251D01*
X+634244Y-9941251D01*
X+577849Y-9997646D01*
X+577849Y-9622931D01*
X+780131Y-9420649D01*
X+851974Y-9420649D01*
X+922649Y-9349974D01*
X+922649Y-9250026D01*
X+886472Y-9213849D01*
X+971528Y-9213849D01*
X+935351Y-9250026D01*
X+935351Y-9349974D01*
X+1006026Y-9420649D01*
X+1105974Y-9420649D01*
X+1136651Y-9389972D01*
X+1136651Y-9490431D01*
X+1241069Y-9594849D01*
X+1336607Y-9594849D01*
X+1291951Y-9639505D01*
X+1291951Y-9747269D01*
X+1136651Y-9902569D01*
X+1136651Y-10569931D01*
X+1241069Y-10674349D01*
X+2675569Y-10674349D01*
X+2941251Y-10940031D01*
X+2941251Y-11065756D01*
X+3034244Y-11158749D01*
X+3165756Y-11158749D01*
X+3258749Y-11065756D01*
X+3258749Y-10934244D01*
X+3165756Y-10841251D01*
X+3040031Y-10841251D01*
X+2733431Y-10534651D01*
X+1298931Y-10534651D01*
X+1276349Y-10512069D01*
X+1276349Y-9960431D01*
X+1390731Y-9846049D01*
X+1498495Y-9846049D01*
X+1584049Y-9760495D01*
X+1584049Y-9682829D01*
X+2053951Y-10152731D01*
X+2053951Y-10260495D01*
X+2118557Y-10325101D01*
X+1688823Y-10325101D01*
X+1584049Y-10220327D01*
X+1584049Y-10139505D01*
X+1498495Y-10053951D01*
X+1377505Y-10053951D01*
X+1291951Y-10139505D01*
X+1291951Y-10260495D01*
X+1377505Y-10346049D01*
X+1458327Y-10346049D01*
X+1615177Y-10502899D01*
X+2322823Y-10502899D01*
X+2436823Y-10388899D01*
X+2564394Y-10388899D01*
X+2634244Y-10458749D01*
X+2765756Y-10458749D01*
X+2835606Y-10388899D01*
X+3064394Y-10388899D01*
X+3134244Y-10458749D01*
X+3265756Y-10458749D01*
X+3358749Y-10365756D01*
X+3358749Y-10234244D01*
X+3265756Y-10141251D01*
X+3134244Y-10141251D01*
X+3064394Y-10211101D01*
X+2835606Y-10211101D01*
X+2765756Y-10141251D01*
X+2634244Y-10141251D01*
X+2564394Y-10211101D01*
X+2363177Y-10211101D01*
X+2346049Y-10228229D01*
X+2346049Y-10139505D01*
X+2260495Y-10053951D01*
X+2152731Y-10053951D01*
X+1630129Y-9531349D01*
X+2932569Y-9531349D01*
X+3041251Y-9640031D01*
X+3041251Y-9765756D01*
X+3134244Y-9858749D01*
X+3265756Y-9858749D01*
X+3358749Y-9765756D01*
X+3358749Y-9634244D01*
X+3265756Y-9541251D01*
X+3140031Y-9541251D01*
X+2990431Y-9391651D01*
X+2404972Y-9391651D01*
X+2446649Y-9349974D01*
X+2446649Y-9250026D01*
X+2410472Y-9213849D01*
X+3330931Y-9213849D01*
X+3369990Y-9174790D01*
X+3369990Y-11239990D01*
G37*
%LPC*%
G36*
X+2346049Y-9639505D02*
X+2346049Y-9760495D01*
X+2260495Y-9846049D01*
X+2139505Y-9846049D01*
X+2053951Y-9760495D01*
X+2053951Y-9639505D01*
X+2139505Y-9553951D01*
X+2260495Y-9553951D01*
X+2346049Y-9639505D01*
G37*
G36*
X+1341251Y-11065756D02*
X+1341251Y-10934244D01*
X+1434244Y-10841251D01*
X+1565756Y-10841251D01*
X+1658749Y-10934244D01*
X+1658749Y-11065756D01*
X+1565756Y-11158749D01*
X+1434244Y-11158749D01*
X+1341251Y-11065756D01*
G37*
G36*
X+1841251Y-11065756D02*
X+1841251Y-10934244D01*
X+1934244Y-10841251D01*
X+2065756Y-10841251D01*
X+2158749Y-10934244D01*
X+2158749Y-11065756D01*
X+2065756Y-11158749D01*
X+1934244Y-11158749D01*
X+1841251Y-11065756D01*
G37*
G36*
X+2341251Y-11065756D02*
X+2341251Y-10934244D01*
X+2434244Y-10841251D01*
X+2565756Y-10841251D01*
X+2658749Y-10934244D01*
X+2658749Y-11065756D01*
X+2565756Y-11158749D01*
X+2434244Y-11158749D01*
X+2341251Y-11065756D01*
G37*
G36*
X+2541251Y-9765756D02*
X+2541251Y-9634244D01*
X+2634244Y-9541251D01*
X+2765756Y-9541251D01*
X+2858749Y-9634244D01*
X+2858749Y-9765756D01*
X+2765756Y-9858749D01*
X+2634244Y-9858749D01*
X+2541251Y-9765756D01*
G37*
%LPD*%
G36*
X+585610Y-6173610D02*
X+565151Y-6194069D01*
X+565151Y-6696431D01*
X+593371Y-6724651D01*
X-252647Y-6724651D01*
X-278047Y-6699251D01*
X-356953Y-6699251D01*
X-412749Y-6755047D01*
X-412749Y-6833953D01*
X-356953Y-6889749D01*
X-278047Y-6889749D01*
X-252647Y-6864349D01*
X+684449Y-6864349D01*
X+666751Y-6882047D01*
X+666751Y-6894951D01*
X+552505Y-6894951D01*
X+466951Y-6980505D01*
X+466951Y-7099171D01*
X+363931Y-6996151D01*
X+235149Y-6996151D01*
X+235149Y-6989723D01*
X+127277Y-6881851D01*
X-25277Y-6881851D01*
X-133149Y-6989723D01*
X-133149Y-7142277D01*
X-106275Y-7169151D01*
X-491725Y-7169151D01*
X-464851Y-7142277D01*
X-464851Y-6989723D01*
X-572723Y-6881851D01*
X-725277Y-6881851D01*
X-833149Y-6989723D01*
X-833149Y-7142277D01*
X-806275Y-7169151D01*
X-1425931Y-7169151D01*
X-1553849Y-7297069D01*
X-1553849Y-7675226D01*
X-1604649Y-7726026D01*
X-1604649Y-7825001D01*
X-1617351Y-7825001D01*
X-1617351Y-7726026D01*
X-1688026Y-7655351D01*
X-1752601Y-7655351D01*
X-1752601Y-7148823D01*
X-725177Y-6121399D01*
X+637821Y-6121399D01*
X+585610Y-6173610D01*
G37*
%LPC*%
G36*
X-483149Y-6392277D02*
X-483149Y-6239723D01*
X-375277Y-6131851D01*
X-222723Y-6131851D01*
X-114851Y-6239723D01*
X-114851Y-6392277D01*
X-222723Y-6500149D01*
X-375277Y-6500149D01*
X-483149Y-6392277D01*
G37*
%LPD*%
G36*
X+3295651Y-6823431D02*
X+3295651Y-6873107D01*
X+3276495Y-6853951D01*
X+3155505Y-6853951D01*
X+3069951Y-6939505D01*
X+3069951Y-7060495D01*
X+3155505Y-7146049D01*
X+3276495Y-7146049D01*
X+3295651Y-7126893D01*
X+3295651Y-7273107D01*
X+3276495Y-7253951D01*
X+3155505Y-7253951D01*
X+3069951Y-7339505D01*
X+3069951Y-7460495D01*
X+3155505Y-7546049D01*
X+3276495Y-7546049D01*
X+3295651Y-7526893D01*
X+3295651Y-9051569D01*
X+3273069Y-9074151D01*
X+1691069Y-9074151D01*
X+1585869Y-9179351D01*
X+1530349Y-9179351D01*
X+1530349Y-9045931D01*
X+1552931Y-9023349D01*
X+3140431Y-9023349D01*
X+3244849Y-8918931D01*
X+3244849Y-7654569D01*
X+3054349Y-7464069D01*
X+3054349Y-6829069D01*
X+3026129Y-6800849D01*
X+3273069Y-6800849D01*
X+3295651Y-6823431D01*
G37*
G36*
X+2053951Y-6939505D02*
X+2053951Y-7047269D01*
X+1932069Y-7169151D01*
X+1707393Y-7169151D01*
X+1775049Y-7101495D01*
X+1775049Y-6980505D01*
X+1689495Y-6894951D01*
X+1568505Y-6894951D01*
X+1482951Y-6980505D01*
X+1482951Y-7101495D01*
X+1550607Y-7169151D01*
X+803629Y-7169151D01*
X+831849Y-7140931D01*
X+831849Y-6986353D01*
X+857249Y-6960953D01*
X+857249Y-6882047D01*
X+839551Y-6864349D01*
X+2129107Y-6864349D01*
X+2053951Y-6939505D01*
G37*
G36*
X+339371Y-7169151D02*
X+208275Y-7169151D01*
X+235149Y-7142277D01*
X+235149Y-7135849D01*
X+306069Y-7135849D01*
X+339371Y-7169151D01*
G37*
G36*
X+1365251Y-7326547D02*
X+1365251Y-7405453D01*
X+1421047Y-7461249D01*
X+1482951Y-7461249D01*
X+1482951Y-7496269D01*
X+1429069Y-7550151D01*
X+718393Y-7550151D01*
X+759049Y-7509495D01*
X+759049Y-7388505D01*
X+679393Y-7308849D01*
X+1382949Y-7308849D01*
X+1365251Y-7326547D01*
G37*
G36*
X+1771651Y-7580169D02*
X+1749069Y-7602751D01*
X+1574029Y-7602751D01*
X+1581731Y-7595049D01*
X+1689495Y-7595049D01*
X+1771651Y-7512893D01*
X+1771651Y-7580169D01*
G37*
G36*
X+466951Y-7388505D02*
X+466951Y-7509495D01*
X+507607Y-7550151D01*
X-1102931Y-7550151D01*
X-1208131Y-7655351D01*
X-1268101Y-7655351D01*
X-1268101Y-7621277D01*
X-1301751Y-7587627D01*
X-1301751Y-7580547D01*
X-1357547Y-7524751D01*
X-1414151Y-7524751D01*
X-1414151Y-7354931D01*
X-1368069Y-7308849D01*
X+546607Y-7308849D01*
X+466951Y-7388505D01*
G37*
G36*
X+2381251Y-6882047D02*
X+2381251Y-6960953D01*
X+2406651Y-6986353D01*
X+2406651Y-7596569D01*
X+2347869Y-7655351D01*
X+2276026Y-7655351D01*
X+2269849Y-7661528D01*
X+2269849Y-7536695D01*
X+2346049Y-7460495D01*
X+2346049Y-7339505D01*
X+2260495Y-7253951D01*
X+2139505Y-7253951D01*
X+2053951Y-7339505D01*
X+2053951Y-7460495D01*
X+2130151Y-7536695D01*
X+2130151Y-7663528D01*
X+2121974Y-7655351D01*
X+2022026Y-7655351D01*
X+1951351Y-7726026D01*
X+1951351Y-7825974D01*
X+1993028Y-7867651D01*
X+1896972Y-7867651D01*
X+1938649Y-7825974D01*
X+1938649Y-7726026D01*
X+1881002Y-7668378D01*
X+1911349Y-7638031D01*
X+1911349Y-7337069D01*
X+1883129Y-7308849D01*
X+1989931Y-7308849D01*
X+2152731Y-7146049D01*
X+2260495Y-7146049D01*
X+2346049Y-7060495D01*
X+2346049Y-6939505D01*
X+2270893Y-6864349D01*
X+2398949Y-6864349D01*
X+2381251Y-6882047D01*
G37*
G36*
X+2914651Y-6886931D02*
X+2914651Y-7521931D01*
X+3105151Y-7712431D01*
X+3105151Y-7728607D01*
X+3028495Y-7651951D01*
X+2907505Y-7651951D01*
X+2821951Y-7737505D01*
X+2821951Y-7845269D01*
X+2736069Y-7931151D01*
X+2241629Y-7931151D01*
X+2269849Y-7902931D01*
X+2269849Y-7890472D01*
X+2276026Y-7896649D01*
X+2375974Y-7896649D01*
X+2446649Y-7825974D01*
X+2446649Y-7754131D01*
X+2546349Y-7654431D01*
X+2546349Y-6986353D01*
X+2571749Y-6960953D01*
X+2571749Y-6882047D01*
X+2554051Y-6864349D01*
X+2892069Y-6864349D01*
X+2914651Y-6886931D01*
G37*
G36*
X-588649Y-7810571D02*
X-601351Y-7797869D01*
X-601351Y-7742449D01*
X-588649Y-7742449D01*
X-588649Y-7810571D01*
G37*
G36*
X+1697351Y-7825974D02*
X+1739028Y-7867651D01*
X+1642972Y-7867651D01*
X+1684649Y-7825974D01*
X+1684649Y-7742449D01*
X+1697351Y-7742449D01*
X+1697351Y-7825974D01*
G37*
G36*
X+1443351Y-7825974D02*
X+1485028Y-7867651D01*
X+1388972Y-7867651D01*
X+1430649Y-7825974D01*
X+1430649Y-7742449D01*
X+1443351Y-7742449D01*
X+1443351Y-7825974D01*
G37*
G36*
X+1189351Y-7825974D02*
X+1231028Y-7867651D01*
X+1134972Y-7867651D01*
X+1176649Y-7825974D01*
X+1176649Y-7742449D01*
X+1189351Y-7742449D01*
X+1189351Y-7825974D01*
G37*
G36*
X+935351Y-7825974D02*
X+977028Y-7867651D01*
X+880972Y-7867651D01*
X+922649Y-7825974D01*
X+922649Y-7742449D01*
X+935351Y-7742449D01*
X+935351Y-7825974D01*
G37*
G36*
X+681351Y-7825974D02*
X+723028Y-7867651D01*
X+626972Y-7867651D01*
X+668649Y-7825974D01*
X+668649Y-7742449D01*
X+681351Y-7742449D01*
X+681351Y-7825974D01*
G37*
G36*
X+427351Y-7825974D02*
X+469028Y-7867651D01*
X+372972Y-7867651D01*
X+414649Y-7825974D01*
X+414649Y-7742449D01*
X+427351Y-7742449D01*
X+427351Y-7825974D01*
G37*
G36*
X+173351Y-7825974D02*
X+215028Y-7867651D01*
X+118972Y-7867651D01*
X+160649Y-7825974D01*
X+160649Y-7742449D01*
X+173351Y-7742449D01*
X+173351Y-7825974D01*
G37*
G36*
X-80649Y-7825974D02*
X-38972Y-7867651D01*
X-135028Y-7867651D01*
X-93351Y-7825974D01*
X-93351Y-7742449D01*
X-80649Y-7742449D01*
X-80649Y-7825974D01*
G37*
G36*
X-334649Y-7825974D02*
X-292972Y-7867651D01*
X-389028Y-7867651D01*
X-347351Y-7825974D01*
X-347351Y-7742449D01*
X-334649Y-7742449D01*
X-334649Y-7825974D01*
G37*
G36*
X-1096649Y-7825974D02*
X-1025974Y-7896649D01*
X-926026Y-7896649D01*
X-855351Y-7825974D01*
X-855351Y-7754131D01*
X-843669Y-7742449D01*
X-842649Y-7742449D01*
X-842649Y-7825974D01*
X-771974Y-7896649D01*
X-700131Y-7896649D01*
X-665629Y-7931151D01*
X-1268101Y-7931151D01*
X-1268101Y-7896649D01*
X-1180026Y-7896649D01*
X-1109351Y-7825974D01*
X-1109351Y-7754131D01*
X-1096649Y-7741429D01*
X-1096649Y-7825974D01*
G37*
G36*
X+3105151Y-8744607D02*
X+3028495Y-8667951D01*
X+2907505Y-8667951D01*
X+2831305Y-8744151D01*
X-2003069Y-8744151D01*
X-2025651Y-8721569D01*
X-2025651Y-8002629D01*
X-1957431Y-8070849D01*
X+2793931Y-8070849D01*
X+2920731Y-7944049D01*
X+3028495Y-7944049D01*
X+3105151Y-7867393D01*
X+3105151Y-8744607D01*
G37*
G36*
X-2569849Y-7876774D02*
X-2569849Y-9085931D01*
X-2476429Y-9179351D01*
X-2597151Y-9179351D01*
X-2597151Y-7849472D01*
X-2569849Y-7876774D01*
G37*
G36*
X-2366649Y-7726026D02*
X-2366649Y-7825974D01*
X-2295974Y-7896649D01*
X-2196026Y-7896649D01*
X-2165349Y-7865972D01*
X-2165349Y-8779431D01*
X-2060931Y-8883849D01*
X+1494871Y-8883849D01*
X+1390651Y-8988069D01*
X+1390651Y-9210028D01*
X+1359974Y-9179351D01*
X+1276349Y-9179351D01*
X+1276349Y-9178569D01*
X+1171931Y-9074151D01*
X-2384069Y-9074151D01*
X-2430151Y-9028069D01*
X-2430151Y-7876774D01*
X-2379351Y-7825974D01*
X-2379351Y-7726026D01*
X-2415528Y-7689849D01*
X-2330472Y-7689849D01*
X-2366649Y-7726026D01*
G37*
G36*
X+681351Y-9250026D02*
X+681351Y-9321869D01*
X+668649Y-9334571D01*
X+668649Y-9250026D01*
X+632472Y-9213849D01*
X+717528Y-9213849D01*
X+681351Y-9250026D01*
G37*
G36*
X+173351Y-9250026D02*
X+173351Y-9321869D01*
X+160649Y-9334571D01*
X+160649Y-9250026D01*
X+124472Y-9213849D01*
X+209528Y-9213849D01*
X+173351Y-9250026D01*
G37*
G36*
X+2205351Y-9250026D02*
X+2205351Y-9349974D01*
X+2247028Y-9391651D01*
X+2150972Y-9391651D01*
X+2192649Y-9349974D01*
X+2192649Y-9250026D01*
X+2156472Y-9213849D01*
X+2241528Y-9213849D01*
X+2205351Y-9250026D01*
G37*
G36*
X+1951351Y-9250026D02*
X+1951351Y-9349974D01*
X+1993028Y-9391651D01*
X+1896972Y-9391651D01*
X+1938649Y-9349974D01*
X+1938649Y-9250026D01*
X+1902472Y-9213849D01*
X+1987528Y-9213849D01*
X+1951351Y-9250026D01*
G37*
G36*
X+1697351Y-9349974D02*
X+1739028Y-9391651D01*
X+1642972Y-9391651D01*
X+1684649Y-9349974D01*
X+1684649Y-9278131D01*
X+1697351Y-9265429D01*
X+1697351Y-9349974D01*
G37*
G36*
X-80649Y-9250026D02*
X-80649Y-9349974D01*
X-9974Y-9420649D01*
X+74571Y-9420649D01*
X-20786Y-9516006D01*
X-1235431Y-9516006D01*
X-1369849Y-9650424D01*
X-1369849Y-9785701D01*
X-1447319Y-9785701D01*
X-1447319Y-10014299D01*
X-1231899Y-10014299D01*
X-1231899Y-10069823D01*
X-1216021Y-10085701D01*
X-1447319Y-10085701D01*
X-1447319Y-10314299D01*
X-1358899Y-10314299D01*
X-1358899Y-10579101D01*
X-2036823Y-10579101D01*
X-2088899Y-10631177D01*
X-2088899Y-10741251D01*
X-2158749Y-10741251D01*
X-2158749Y-10811101D01*
X-2249177Y-10811101D01*
X-2249178Y-10811100D01*
X-2341251Y-10811100D01*
X-2341251Y-10741251D01*
X-2684151Y-10741251D01*
X-2684151Y-10419131D01*
X-2638069Y-10373049D01*
X-2218735Y-10373049D01*
X-2155235Y-10436549D01*
X-2044765Y-10436549D01*
X-1966651Y-10358435D01*
X-1966651Y-10247965D01*
X-2013016Y-10201600D01*
X-1966651Y-10155235D01*
X-1966651Y-10044765D01*
X-2013016Y-9998400D01*
X-1966651Y-9952035D01*
X-1966651Y-9841565D01*
X-2044765Y-9763451D01*
X-2155235Y-9763451D01*
X-2233349Y-9841565D01*
X-2233349Y-9867871D01*
X-2597151Y-9504069D01*
X-2597151Y-9420649D01*
X-2379351Y-9420649D01*
X-2379351Y-9213849D01*
X-2330472Y-9213849D01*
X-2366649Y-9250026D01*
X-2366649Y-9349974D01*
X-2295974Y-9420649D01*
X-2196026Y-9420649D01*
X-2125351Y-9349974D01*
X-2125351Y-9250026D01*
X-2161528Y-9213849D01*
X-2076472Y-9213849D01*
X-2112649Y-9250026D01*
X-2112649Y-9349974D01*
X-2041974Y-9420649D01*
X-1942026Y-9420649D01*
X-1871351Y-9349974D01*
X-1871351Y-9250026D01*
X-1907528Y-9213849D01*
X-1822472Y-9213849D01*
X-1858649Y-9250026D01*
X-1858649Y-9349974D01*
X-1787974Y-9420649D01*
X-1688026Y-9420649D01*
X-1617351Y-9349974D01*
X-1617351Y-9250026D01*
X-1653528Y-9213849D01*
X-1568472Y-9213849D01*
X-1604649Y-9250026D01*
X-1604649Y-9349974D01*
X-1533974Y-9420649D01*
X-1434026Y-9420649D01*
X-1363351Y-9349974D01*
X-1363351Y-9250026D01*
X-1399528Y-9213849D01*
X-1314472Y-9213849D01*
X-1350649Y-9250026D01*
X-1350649Y-9349974D01*
X-1279974Y-9420649D01*
X-1180026Y-9420649D01*
X-1109351Y-9349974D01*
X-1109351Y-9250026D01*
X-1145528Y-9213849D01*
X-1060472Y-9213849D01*
X-1096649Y-9250026D01*
X-1096649Y-9349974D01*
X-1025974Y-9420649D01*
X-926026Y-9420649D01*
X-855351Y-9349974D01*
X-855351Y-9250026D01*
X-891528Y-9213849D01*
X-806472Y-9213849D01*
X-842649Y-9250026D01*
X-842649Y-9349974D01*
X-771974Y-9420649D01*
X-672026Y-9420649D01*
X-601351Y-9349974D01*
X-601351Y-9250026D01*
X-637528Y-9213849D01*
X-552472Y-9213849D01*
X-588649Y-9250026D01*
X-588649Y-9349974D01*
X-517974Y-9420649D01*
X-418026Y-9420649D01*
X-347351Y-9349974D01*
X-347351Y-9250026D01*
X-383528Y-9213849D01*
X-298472Y-9213849D01*
X-334649Y-9250026D01*
X-334649Y-9349974D01*
X-263974Y-9420649D01*
X-164026Y-9420649D01*
X-93351Y-9349974D01*
X-93351Y-9250026D01*
X-129528Y-9213849D01*
X-44472Y-9213849D01*
X-80649Y-9250026D01*
G37*
G36*
X+1390651Y-9398000D02*
X+1390651Y-9426931D01*
X+1418871Y-9455151D01*
X+1298931Y-9455151D01*
X+1276349Y-9432569D01*
X+1276349Y-9420649D01*
X+1359974Y-9420649D01*
X+1390651Y-9389972D01*
X+1390651Y-9398000D01*
G37*
G36*
X-947319Y-9944101D02*
X-1054101Y-9944101D01*
X-1054101Y-9942823D01*
X-979177Y-9867899D01*
X-947319Y-9867899D01*
X-947319Y-9944101D01*
G37*
G36*
X+427351Y-9250026D02*
X+427351Y-9349974D01*
X+498026Y-9420649D01*
X+582571Y-9420649D01*
X+438151Y-9565069D01*
X+438151Y-10512069D01*
X+415569Y-10534651D01*
X-233431Y-10534651D01*
X-540031Y-10841251D01*
X-665756Y-10841251D01*
X-758749Y-10934244D01*
X-758749Y-11065756D01*
X-673904Y-11150601D01*
X-852177Y-11150601D01*
X-927101Y-11075677D01*
X-927101Y-10758177D01*
X-1106177Y-10579101D01*
X-1181101Y-10579101D01*
X-1181101Y-10314299D01*
X-1152681Y-10314299D01*
X-1152681Y-10288899D01*
X-1042677Y-10288899D01*
X-990601Y-10236823D01*
X-990601Y-10121899D01*
X-947319Y-10121899D01*
X-947319Y-10314299D01*
X-652681Y-10314299D01*
X-652681Y-10085701D01*
X-711101Y-10085701D01*
X-711101Y-10014299D01*
X-652681Y-10014299D01*
X-652681Y-9969849D01*
X-36931Y-9969849D01*
X+33251Y-10040031D01*
X+33251Y-10165756D01*
X+126244Y-10258749D01*
X+257756Y-10258749D01*
X+350749Y-10165756D01*
X+350749Y-10034244D01*
X+257756Y-9941251D01*
X+132031Y-9941251D01*
X+65029Y-9874249D01*
X+102953Y-9874249D01*
X+158749Y-9818453D01*
X+158749Y-9739547D01*
X+102953Y-9683751D01*
X+24047Y-9683751D01*
X+17697Y-9690101D01*
X-1052823Y-9690101D01*
X-1152681Y-9789959D01*
X-1152681Y-9785701D01*
X-1230151Y-9785701D01*
X-1230151Y-9708286D01*
X-1177569Y-9655704D01*
X+37076Y-9655704D01*
X+272131Y-9420649D01*
X+343974Y-9420649D01*
X+414649Y-9349974D01*
X+414649Y-9250026D01*
X+378472Y-9213849D01*
X+463528Y-9213849D01*
X+427351Y-9250026D01*
G37*
D10*
X-317500Y-6794500D02*
X+2921000Y-6794500D01*
X+2984500Y-6858000D01*
X+2984500Y-7493000D01*
X+3175000Y-7683500D01*
X+3175000Y-8890000D01*
X+3111500Y-8953500D01*
X+1524000Y-8953500D01*
X+1460500Y-9017000D01*
X+1460500Y-9398000D01*
X+1524000Y-9461500D01*
X+2961500Y-9461500D01*
X+3200000Y-9700000D01*
X+762000Y-6921500D02*
X+762000Y-7112000D01*
X+698500Y-7175500D01*
X+444500Y-7175500D01*
X+335000Y-7066000D01*
X+51000Y-7066000D01*
X+2968000Y-8814000D02*
X-2032000Y-8814000D01*
X-2095500Y-8750500D01*
X-2095500Y-7683500D01*
X-2159000Y-7620000D01*
X-2603500Y-7620000D01*
X-2667000Y-7683500D01*
X-2667000Y-9533000D01*
X-2100000Y-10100000D01*
X-2100000Y-10303200D02*
X-2667000Y-10303200D01*
X-2754000Y-10390200D01*
X-2754000Y-10900000D01*
X+294000Y-9300000D02*
X+8145Y-9585855D01*
X-1206500Y-9585855D01*
X-1300000Y-9679355D01*
X-1300000Y-9900000D01*
X+192000Y-10100000D02*
X-8000Y-9900000D01*
X-800000Y-9900000D01*
X+1438000Y-9700000D02*
X+1206500Y-9931500D01*
X+1206500Y-10541000D01*
X+1270000Y-10604500D01*
X+2704500Y-10604500D01*
X+3100000Y-11000000D01*
X+802000Y-9300000D02*
X+508000Y-9594000D01*
X+508000Y-10541000D01*
X+444500Y-10604500D01*
X-204500Y-10604500D01*
X-600000Y-11000000D01*
X+1564000Y-9300000D02*
X+1720000Y-9144000D01*
X+3302000Y-9144000D01*
X+3365500Y-9080500D01*
X+3365500Y-6794500D01*
X+3302000Y-6731000D01*
X+698500Y-6731000D01*
X+635000Y-6667500D01*
X+635000Y-6223000D01*
X+753676Y-6104324D01*
X+1138000Y-6104324D01*
X+1138000Y-6246000D01*
D11*
X-1079500Y-10033000D02*
X-1079500Y-10200000D01*
X-1270000Y-10200000D01*
X-1270000Y-10414000D02*
X-1270000Y-10200000D01*
X+1900001Y-6032500D02*
X+2408000Y-6032500D01*
X+2408000Y-6246000D01*
X+1333500Y-6032500D02*
X+1900001Y-6032500D01*
X-1841500Y-7112000D02*
X-762000Y-6032500D01*
X+1333500Y-6032500D01*
X+1900001Y-6096000D02*
X+1900001Y-6032500D01*
X-2000000Y-10900000D02*
X-2000000Y-10668000D01*
X-1270000Y-10668000D01*
X+1333500Y-6096000D02*
X+1333500Y-6032500D01*
X-1841500Y-7112000D02*
X-1878040Y-7075460D01*
X-2299000Y-7075460D01*
X+1438000Y-10200000D02*
X+1652000Y-10414000D01*
X+2286000Y-10414000D01*
X+2400000Y-10300000D01*
X+2700000Y-10300000D01*
X-1079500Y-10033000D02*
X-800000Y-10033000D01*
X-800000Y-10200000D01*
X-1270000Y-10200000D02*
X-1300000Y-10200000D01*
X+1000000Y-11000000D02*
X+760500Y-11239500D01*
X-889000Y-11239500D01*
X-1016000Y-11112500D01*
X-1016000Y-10795000D01*
X-1143000Y-10668000D01*
X-1270000Y-10668000D01*
X-1270000Y-10414000D02*
X-1270000Y-10668000D01*
X+1333500Y-6096000D02*
X+1333500Y-6187500D01*
X+1392000Y-6246000D01*
X+63500Y-9779000D02*
X-1016000Y-9779000D01*
X-1143000Y-9906000D01*
X-1143000Y-10033000D01*
X-1079500Y-10033000D01*
X-1397000Y-7620000D02*
X-1395100Y-7620000D01*
X-1357000Y-7658100D01*
X-1357000Y-7913900D01*
X-1865000Y-7913900D01*
X-1865000Y-7683500D01*
X-1841500Y-7660000D01*
X-1841500Y-7112000D01*
X+2700000Y-10300000D02*
X+3200000Y-10300000D01*
X-2000000Y-10900000D02*
X-2286000Y-10900000D01*
X-2286001Y-10899999D01*
X-2500000Y-10899999D01*
X-2500000Y-10900000D01*
X+1900001Y-6096000D02*
X+1900001Y-6245999D01*
X+1900000Y-6246000D01*
D10*
X-976000Y-7776000D02*
X-872600Y-7672600D01*
X+1778000Y-7672600D01*
X+1841500Y-7609100D01*
X+1841500Y-7366000D01*
X+1778000Y-7302500D01*
X+1524000Y-7302500D01*
X+1460500Y-7366000D01*
X+2476500Y-6921500D02*
X+2476500Y-7625500D01*
X+2326000Y-7776000D01*
X+2200000Y-7400000D02*
X+2200000Y-7874000D01*
X+2136500Y-7937500D01*
X-560500Y-7937500D01*
X-722000Y-7776000D01*
X+2200000Y-7000000D02*
X+1961000Y-7239000D01*
X-1397000Y-7239000D01*
X-1484000Y-7326000D01*
X-1484000Y-7776000D01*
X+1629000Y-7449000D02*
X+1458000Y-7620000D01*
X-1074000Y-7620000D01*
X-1230000Y-7776000D01*
X-1992000Y-7776000D02*
X-1992000Y-7937500D01*
X-1928500Y-8001000D01*
X+2765000Y-8001000D01*
X+2968000Y-7798000D01*
X+2200000Y-10200000D02*
X+1525000Y-9525000D01*
X+1270000Y-9525000D01*
X+1206500Y-9461500D01*
X+1206500Y-9207500D01*
X+1143000Y-9144000D01*
X-2413000Y-9144000D01*
X-2500000Y-9057000D01*
X-2500000Y-7776000D01*
D12*
X-317500Y-6794500D03*
X+762000Y-6921500D03*
X+63500Y-9779000D03*
X-1397000Y-7620000D03*
X+1460500Y-7366000D03*
X+2476500Y-6921500D03*
D11*
X+3369990Y-6700210D02*
X+3330931Y-6661151D01*
X+727431Y-6661151D01*
X+704849Y-6638569D01*
X+704849Y-6251931D01*
X+725251Y-6231529D01*
X+725251Y-6658749D01*
X+2566749Y-6658749D01*
X+2566749Y-6087251D01*
X+2496899Y-6087251D01*
X+2496899Y-6010010D01*
X+3369990Y-6010010D01*
X+3369990Y-6700210D01*
X-1841783Y-6986561D02*
X-2127473Y-6986561D01*
X-2222723Y-6891311D01*
X-2375277Y-6891311D01*
X-2483149Y-6999183D01*
X-2483149Y-7151737D01*
X-2375277Y-7259609D01*
X-2222723Y-7259609D01*
X-2127473Y-7164359D01*
X-1930399Y-7164359D01*
X-1930399Y-7623177D01*
X-1953899Y-7646677D01*
X-1953899Y-7655351D01*
X-2025651Y-7655351D01*
X-2025651Y-7654569D01*
X-2130069Y-7550151D01*
X-2632431Y-7550151D01*
X-2736849Y-7654569D01*
X-2736849Y-9561931D01*
X-2233349Y-10065431D01*
X-2233349Y-10155235D01*
X-2186984Y-10201600D01*
X-2218735Y-10233351D01*
X-2695931Y-10233351D01*
X-2823849Y-10361269D01*
X-2823849Y-10741251D01*
X-2912749Y-10741251D01*
X-2912749Y-11058749D01*
X-2341251Y-11058749D01*
X-2341251Y-10988898D01*
X-2322824Y-10988898D01*
X-2322823Y-10988899D01*
X-2158749Y-10988899D01*
X-2158749Y-11058749D01*
X-1104899Y-11058749D01*
X-1104899Y-11149323D01*
X-1014232Y-11239990D01*
X-3019990Y-11239990D01*
X-3019990Y-6010010D01*
X-865232Y-6010010D01*
X-1841783Y-6986561D01*
X-2483149Y-6392277D02*
X-2483149Y-6239723D01*
X-2375277Y-6131851D01*
X-2222723Y-6131851D01*
X-2114851Y-6239723D01*
X-2114851Y-6392277D01*
X-2222723Y-6500149D01*
X-2375277Y-6500149D01*
X-2483149Y-6392277D01*
X+3369990Y-11239990D02*
X+885732Y-11239990D01*
X+966973Y-11158749D01*
X+1065756Y-11158749D01*
X+1158749Y-11065756D01*
X+1158749Y-10934244D01*
X+1065756Y-10841251D01*
X+934244Y-10841251D01*
X+841251Y-10934244D01*
X+841251Y-11033027D01*
X+723677Y-11150601D01*
X+573904Y-11150601D01*
X+658749Y-11065756D01*
X+658749Y-10934244D01*
X+565756Y-10841251D01*
X+434244Y-10841251D01*
X+341251Y-10934244D01*
X+341251Y-11065756D01*
X+426096Y-11150601D01*
X-26096Y-11150601D01*
X+58749Y-11065756D01*
X+58749Y-10934244D01*
X-34244Y-10841251D01*
X-165756Y-10841251D01*
X-258749Y-10934244D01*
X-258749Y-11065756D01*
X-173904Y-11150601D01*
X-526096Y-11150601D01*
X-441251Y-11065756D01*
X-441251Y-10940031D01*
X-175569Y-10674349D01*
X+473431Y-10674349D01*
X+577849Y-10569931D01*
X+577849Y-10202354D01*
X+634244Y-10258749D01*
X+765756Y-10258749D01*
X+858749Y-10165756D01*
X+858749Y-10034244D01*
X+765756Y-9941251D01*
X+634244Y-9941251D01*
X+577849Y-9997646D01*
X+577849Y-9622931D01*
X+780131Y-9420649D01*
X+851974Y-9420649D01*
X+922649Y-9349974D01*
X+922649Y-9250026D01*
X+886472Y-9213849D01*
X+971528Y-9213849D01*
X+935351Y-9250026D01*
X+935351Y-9349974D01*
X+1006026Y-9420649D01*
X+1105974Y-9420649D01*
X+1136651Y-9389972D01*
X+1136651Y-9490431D01*
X+1241069Y-9594849D01*
X+1336607Y-9594849D01*
X+1291951Y-9639505D01*
X+1291951Y-9747269D01*
X+1136651Y-9902569D01*
X+1136651Y-10569931D01*
X+1241069Y-10674349D01*
X+2675569Y-10674349D01*
X+2941251Y-10940031D01*
X+2941251Y-11065756D01*
X+3034244Y-11158749D01*
X+3165756Y-11158749D01*
X+3258749Y-11065756D01*
X+3258749Y-10934244D01*
X+3165756Y-10841251D01*
X+3040031Y-10841251D01*
X+2733431Y-10534651D01*
X+1298931Y-10534651D01*
X+1276349Y-10512069D01*
X+1276349Y-9960431D01*
X+1390731Y-9846049D01*
X+1498495Y-9846049D01*
X+1584049Y-9760495D01*
X+1584049Y-9682829D01*
X+2053951Y-10152731D01*
X+2053951Y-10260495D01*
X+2118557Y-10325101D01*
X+1688823Y-10325101D01*
X+1584049Y-10220327D01*
X+1584049Y-10139505D01*
X+1498495Y-10053951D01*
X+1377505Y-10053951D01*
X+1291951Y-10139505D01*
X+1291951Y-10260495D01*
X+1377505Y-10346049D01*
X+1458327Y-10346049D01*
X+1615177Y-10502899D01*
X+2322823Y-10502899D01*
X+2436823Y-10388899D01*
X+2564394Y-10388899D01*
X+2634244Y-10458749D01*
X+2765756Y-10458749D01*
X+2835606Y-10388899D01*
X+3064394Y-10388899D01*
X+3134244Y-10458749D01*
X+3265756Y-10458749D01*
X+3358749Y-10365756D01*
X+3358749Y-10234244D01*
X+3265756Y-10141251D01*
X+3134244Y-10141251D01*
X+3064394Y-10211101D01*
X+2835606Y-10211101D01*
X+2765756Y-10141251D01*
X+2634244Y-10141251D01*
X+2564394Y-10211101D01*
X+2363177Y-10211101D01*
X+2346049Y-10228229D01*
X+2346049Y-10139505D01*
X+2260495Y-10053951D01*
X+2152731Y-10053951D01*
X+1630129Y-9531349D01*
X+2932569Y-9531349D01*
X+3041251Y-9640031D01*
X+3041251Y-9765756D01*
X+3134244Y-9858749D01*
X+3265756Y-9858749D01*
X+3358749Y-9765756D01*
X+3358749Y-9634244D01*
X+3265756Y-9541251D01*
X+3140031Y-9541251D01*
X+2990431Y-9391651D01*
X+2404972Y-9391651D01*
X+2446649Y-9349974D01*
X+2446649Y-9250026D01*
X+2410472Y-9213849D01*
X+3330931Y-9213849D01*
X+3369990Y-9174790D01*
X+3369990Y-11239990D01*
X+2346049Y-9639505D02*
X+2346049Y-9760495D01*
X+2260495Y-9846049D01*
X+2139505Y-9846049D01*
X+2053951Y-9760495D01*
X+2053951Y-9639505D01*
X+2139505Y-9553951D01*
X+2260495Y-9553951D01*
X+2346049Y-9639505D01*
X+1341251Y-11065756D02*
X+1341251Y-10934244D01*
X+1434244Y-10841251D01*
X+1565756Y-10841251D01*
X+1658749Y-10934244D01*
X+1658749Y-11065756D01*
X+1565756Y-11158749D01*
X+1434244Y-11158749D01*
X+1341251Y-11065756D01*
X+1841251Y-11065756D02*
X+1841251Y-10934244D01*
X+1934244Y-10841251D01*
X+2065756Y-10841251D01*
X+2158749Y-10934244D01*
X+2158749Y-11065756D01*
X+2065756Y-11158749D01*
X+1934244Y-11158749D01*
X+1841251Y-11065756D01*
X+2341251Y-11065756D02*
X+2341251Y-10934244D01*
X+2434244Y-10841251D01*
X+2565756Y-10841251D01*
X+2658749Y-10934244D01*
X+2658749Y-11065756D01*
X+2565756Y-11158749D01*
X+2434244Y-11158749D01*
X+2341251Y-11065756D01*
X+2541251Y-9765756D02*
X+2541251Y-9634244D01*
X+2634244Y-9541251D01*
X+2765756Y-9541251D01*
X+2858749Y-9634244D01*
X+2858749Y-9765756D01*
X+2765756Y-9858749D01*
X+2634244Y-9858749D01*
X+2541251Y-9765756D01*
X+585610Y-6173610D02*
X+565151Y-6194069D01*
X+565151Y-6696431D01*
X+593371Y-6724651D01*
X-252647Y-6724651D01*
X-278047Y-6699251D01*
X-356953Y-6699251D01*
X-412749Y-6755047D01*
X-412749Y-6833953D01*
X-356953Y-6889749D01*
X-278047Y-6889749D01*
X-252647Y-6864349D01*
X+684449Y-6864349D01*
X+666751Y-6882047D01*
X+666751Y-6894951D01*
X+552505Y-6894951D01*
X+466951Y-6980505D01*
X+466951Y-7099171D01*
X+363931Y-6996151D01*
X+235149Y-6996151D01*
X+235149Y-6989723D01*
X+127277Y-6881851D01*
X-25277Y-6881851D01*
X-133149Y-6989723D01*
X-133149Y-7142277D01*
X-106275Y-7169151D01*
X-491725Y-7169151D01*
X-464851Y-7142277D01*
X-464851Y-6989723D01*
X-572723Y-6881851D01*
X-725277Y-6881851D01*
X-833149Y-6989723D01*
X-833149Y-7142277D01*
X-806275Y-7169151D01*
X-1425931Y-7169151D01*
X-1553849Y-7297069D01*
X-1553849Y-7675226D01*
X-1604649Y-7726026D01*
X-1604649Y-7825001D01*
X-1617351Y-7825001D01*
X-1617351Y-7726026D01*
X-1688026Y-7655351D01*
X-1752601Y-7655351D01*
X-1752601Y-7148823D01*
X-725177Y-6121399D01*
X+637821Y-6121399D01*
X+585610Y-6173610D01*
X-483149Y-6392277D02*
X-483149Y-6239723D01*
X-375277Y-6131851D01*
X-222723Y-6131851D01*
X-114851Y-6239723D01*
X-114851Y-6392277D01*
X-222723Y-6500149D01*
X-375277Y-6500149D01*
X-483149Y-6392277D01*
X+3295651Y-6823431D02*
X+3295651Y-6873107D01*
X+3276495Y-6853951D01*
X+3155505Y-6853951D01*
X+3069951Y-6939505D01*
X+3069951Y-7060495D01*
X+3155505Y-7146049D01*
X+3276495Y-7146049D01*
X+3295651Y-7126893D01*
X+3295651Y-7273107D01*
X+3276495Y-7253951D01*
X+3155505Y-7253951D01*
X+3069951Y-7339505D01*
X+3069951Y-7460495D01*
X+3155505Y-7546049D01*
X+3276495Y-7546049D01*
X+3295651Y-7526893D01*
X+3295651Y-9051569D01*
X+3273069Y-9074151D01*
X+1691069Y-9074151D01*
X+1585869Y-9179351D01*
X+1530349Y-9179351D01*
X+1530349Y-9045931D01*
X+1552931Y-9023349D01*
X+3140431Y-9023349D01*
X+3244849Y-8918931D01*
X+3244849Y-7654569D01*
X+3054349Y-7464069D01*
X+3054349Y-6829069D01*
X+3026129Y-6800849D01*
X+3273069Y-6800849D01*
X+3295651Y-6823431D01*
X+2053951Y-6939505D02*
X+2053951Y-7047269D01*
X+1932069Y-7169151D01*
X+1707393Y-7169151D01*
X+1775049Y-7101495D01*
X+1775049Y-6980505D01*
X+1689495Y-6894951D01*
X+1568505Y-6894951D01*
X+1482951Y-6980505D01*
X+1482951Y-7101495D01*
X+1550607Y-7169151D01*
X+803629Y-7169151D01*
X+831849Y-7140931D01*
X+831849Y-6986353D01*
X+857249Y-6960953D01*
X+857249Y-6882047D01*
X+839551Y-6864349D01*
X+2129107Y-6864349D01*
X+2053951Y-6939505D01*
X+339371Y-7169151D02*
X+208275Y-7169151D01*
X+235149Y-7142277D01*
X+235149Y-7135849D01*
X+306069Y-7135849D01*
X+339371Y-7169151D01*
X+1365251Y-7326547D02*
X+1365251Y-7405453D01*
X+1421047Y-7461249D01*
X+1482951Y-7461249D01*
X+1482951Y-7496269D01*
X+1429069Y-7550151D01*
X+718393Y-7550151D01*
X+759049Y-7509495D01*
X+759049Y-7388505D01*
X+679393Y-7308849D01*
X+1382949Y-7308849D01*
X+1365251Y-7326547D01*
X+1771651Y-7580169D02*
X+1749069Y-7602751D01*
X+1574029Y-7602751D01*
X+1581731Y-7595049D01*
X+1689495Y-7595049D01*
X+1771651Y-7512893D01*
X+1771651Y-7580169D01*
X+466951Y-7388505D02*
X+466951Y-7509495D01*
X+507607Y-7550151D01*
X-1102931Y-7550151D01*
X-1208131Y-7655351D01*
X-1268101Y-7655351D01*
X-1268101Y-7621277D01*
X-1301751Y-7587627D01*
X-1301751Y-7580547D01*
X-1357547Y-7524751D01*
X-1414151Y-7524751D01*
X-1414151Y-7354931D01*
X-1368069Y-7308849D01*
X+546607Y-7308849D01*
X+466951Y-7388505D01*
X+2381251Y-6882047D02*
X+2381251Y-6960953D01*
X+2406651Y-6986353D01*
X+2406651Y-7596569D01*
X+2347869Y-7655351D01*
X+2276026Y-7655351D01*
X+2269849Y-7661528D01*
X+2269849Y-7536695D01*
X+2346049Y-7460495D01*
X+2346049Y-7339505D01*
X+2260495Y-7253951D01*
X+2139505Y-7253951D01*
X+2053951Y-7339505D01*
X+2053951Y-7460495D01*
X+2130151Y-7536695D01*
X+2130151Y-7663528D01*
X+2121974Y-7655351D01*
X+2022026Y-7655351D01*
X+1951351Y-7726026D01*
X+1951351Y-7825974D01*
X+1993028Y-7867651D01*
X+1896972Y-7867651D01*
X+1938649Y-7825974D01*
X+1938649Y-7726026D01*
X+1881002Y-7668378D01*
X+1911349Y-7638031D01*
X+1911349Y-7337069D01*
X+1883129Y-7308849D01*
X+1989931Y-7308849D01*
X+2152731Y-7146049D01*
X+2260495Y-7146049D01*
X+2346049Y-7060495D01*
X+2346049Y-6939505D01*
X+2270893Y-6864349D01*
X+2398949Y-6864349D01*
X+2381251Y-6882047D01*
X+2914651Y-6886931D02*
X+2914651Y-7521931D01*
X+3105151Y-7712431D01*
X+3105151Y-7728607D01*
X+3028495Y-7651951D01*
X+2907505Y-7651951D01*
X+2821951Y-7737505D01*
X+2821951Y-7845269D01*
X+2736069Y-7931151D01*
X+2241629Y-7931151D01*
X+2269849Y-7902931D01*
X+2269849Y-7890472D01*
X+2276026Y-7896649D01*
X+2375974Y-7896649D01*
X+2446649Y-7825974D01*
X+2446649Y-7754131D01*
X+2546349Y-7654431D01*
X+2546349Y-6986353D01*
X+2571749Y-6960953D01*
X+2571749Y-6882047D01*
X+2554051Y-6864349D01*
X+2892069Y-6864349D01*
X+2914651Y-6886931D01*
X-588649Y-7810571D02*
X-601351Y-7797869D01*
X-601351Y-7742449D01*
X-588649Y-7742449D01*
X-588649Y-7810571D01*
X+1697351Y-7825974D02*
X+1739028Y-7867651D01*
X+1642972Y-7867651D01*
X+1684649Y-7825974D01*
X+1684649Y-7742449D01*
X+1697351Y-7742449D01*
X+1697351Y-7825974D01*
X+1443351Y-7825974D02*
X+1485028Y-7867651D01*
X+1388972Y-7867651D01*
X+1430649Y-7825974D01*
X+1430649Y-7742449D01*
X+1443351Y-7742449D01*
X+1443351Y-7825974D01*
X+1189351Y-7825974D02*
X+1231028Y-7867651D01*
X+1134972Y-7867651D01*
X+1176649Y-7825974D01*
X+1176649Y-7742449D01*
X+1189351Y-7742449D01*
X+1189351Y-7825974D01*
X+935351Y-7825974D02*
X+977028Y-7867651D01*
X+880972Y-7867651D01*
X+922649Y-7825974D01*
X+922649Y-7742449D01*
X+935351Y-7742449D01*
X+935351Y-7825974D01*
X+681351Y-7825974D02*
X+723028Y-7867651D01*
X+626972Y-7867651D01*
X+668649Y-7825974D01*
X+668649Y-7742449D01*
X+681351Y-7742449D01*
X+681351Y-7825974D01*
X+427351Y-7825974D02*
X+469028Y-7867651D01*
X+372972Y-7867651D01*
X+414649Y-7825974D01*
X+414649Y-7742449D01*
X+427351Y-7742449D01*
X+427351Y-7825974D01*
X+173351Y-7825974D02*
X+215028Y-7867651D01*
X+118972Y-7867651D01*
X+160649Y-7825974D01*
X+160649Y-7742449D01*
X+173351Y-7742449D01*
X+173351Y-7825974D01*
X-80649Y-7825974D02*
X-38972Y-7867651D01*
X-135028Y-7867651D01*
X-93351Y-7825974D01*
X-93351Y-7742449D01*
X-80649Y-7742449D01*
X-80649Y-7825974D01*
X-334649Y-7825974D02*
X-292972Y-7867651D01*
X-389028Y-7867651D01*
X-347351Y-7825974D01*
X-347351Y-7742449D01*
X-334649Y-7742449D01*
X-334649Y-7825974D01*
X-1096649Y-7825974D02*
X-1025974Y-7896649D01*
X-926026Y-7896649D01*
X-855351Y-7825974D01*
X-855351Y-7754131D01*
X-843669Y-7742449D01*
X-842649Y-7742449D01*
X-842649Y-7825974D01*
X-771974Y-7896649D01*
X-700131Y-7896649D01*
X-665629Y-7931151D01*
X-1268101Y-7931151D01*
X-1268101Y-7896649D01*
X-1180026Y-7896649D01*
X-1109351Y-7825974D01*
X-1109351Y-7754131D01*
X-1096649Y-7741429D01*
X-1096649Y-7825974D01*
X+3105151Y-8744607D02*
X+3028495Y-8667951D01*
X+2907505Y-8667951D01*
X+2831305Y-8744151D01*
X-2003069Y-8744151D01*
X-2025651Y-8721569D01*
X-2025651Y-8002629D01*
X-1957431Y-8070849D01*
X+2793931Y-8070849D01*
X+2920731Y-7944049D01*
X+3028495Y-7944049D01*
X+3105151Y-7867393D01*
X+3105151Y-8744607D01*
X-2569849Y-7876774D02*
X-2569849Y-9085931D01*
X-2476429Y-9179351D01*
X-2597151Y-9179351D01*
X-2597151Y-7849472D01*
X-2569849Y-7876774D01*
X-2366649Y-7726026D02*
X-2366649Y-7825974D01*
X-2295974Y-7896649D01*
X-2196026Y-7896649D01*
X-2165349Y-7865972D01*
X-2165349Y-8779431D01*
X-2060931Y-8883849D01*
X+1494871Y-8883849D01*
X+1390651Y-8988069D01*
X+1390651Y-9210028D01*
X+1359974Y-9179351D01*
X+1276349Y-9179351D01*
X+1276349Y-9178569D01*
X+1171931Y-9074151D01*
X-2384069Y-9074151D01*
X-2430151Y-9028069D01*
X-2430151Y-7876774D01*
X-2379351Y-7825974D01*
X-2379351Y-7726026D01*
X-2415528Y-7689849D01*
X-2330472Y-7689849D01*
X-2366649Y-7726026D01*
X+681351Y-9250026D02*
X+681351Y-9321869D01*
X+668649Y-9334571D01*
X+668649Y-9250026D01*
X+632472Y-9213849D01*
X+717528Y-9213849D01*
X+681351Y-9250026D01*
X+173351Y-9250026D02*
X+173351Y-9321869D01*
X+160649Y-9334571D01*
X+160649Y-9250026D01*
X+124472Y-9213849D01*
X+209528Y-9213849D01*
X+173351Y-9250026D01*
X+2205351Y-9250026D02*
X+2205351Y-9349974D01*
X+2247028Y-9391651D01*
X+2150972Y-9391651D01*
X+2192649Y-9349974D01*
X+2192649Y-9250026D01*
X+2156472Y-9213849D01*
X+2241528Y-9213849D01*
X+2205351Y-9250026D01*
X+1951351Y-9250026D02*
X+1951351Y-9349974D01*
X+1993028Y-9391651D01*
X+1896972Y-9391651D01*
X+1938649Y-9349974D01*
X+1938649Y-9250026D01*
X+1902472Y-9213849D01*
X+1987528Y-9213849D01*
X+1951351Y-9250026D01*
X+1697351Y-9349974D02*
X+1739028Y-9391651D01*
X+1642972Y-9391651D01*
X+1684649Y-9349974D01*
X+1684649Y-9278131D01*
X+1697351Y-9265429D01*
X+1697351Y-9349974D01*
X-80649Y-9250026D02*
X-80649Y-9349974D01*
X-9974Y-9420649D01*
X+74571Y-9420649D01*
X-20786Y-9516006D01*
X-1235431Y-9516006D01*
X-1369849Y-9650424D01*
X-1369849Y-9785701D01*
X-1447319Y-9785701D01*
X-1447319Y-10014299D01*
X-1231899Y-10014299D01*
X-1231899Y-10069823D01*
X-1216021Y-10085701D01*
X-1447319Y-10085701D01*
X-1447319Y-10314299D01*
X-1358899Y-10314299D01*
X-1358899Y-10579101D01*
X-2036823Y-10579101D01*
X-2088899Y-10631177D01*
X-2088899Y-10741251D01*
X-2158749Y-10741251D01*
X-2158749Y-10811101D01*
X-2249177Y-10811101D01*
X-2249178Y-10811100D01*
X-2341251Y-10811100D01*
X-2341251Y-10741251D01*
X-2684151Y-10741251D01*
X-2684151Y-10419131D01*
X-2638069Y-10373049D01*
X-2218735Y-10373049D01*
X-2155235Y-10436549D01*
X-2044765Y-10436549D01*
X-1966651Y-10358435D01*
X-1966651Y-10247965D01*
X-2013016Y-10201600D01*
X-1966651Y-10155235D01*
X-1966651Y-10044765D01*
X-2013016Y-9998400D01*
X-1966651Y-9952035D01*
X-1966651Y-9841565D01*
X-2044765Y-9763451D01*
X-2155235Y-9763451D01*
X-2233349Y-9841565D01*
X-2233349Y-9867871D01*
X-2597151Y-9504069D01*
X-2597151Y-9420649D01*
X-2379351Y-9420649D01*
X-2379351Y-9213849D01*
X-2330472Y-9213849D01*
X-2366649Y-9250026D01*
X-2366649Y-9349974D01*
X-2295974Y-9420649D01*
X-2196026Y-9420649D01*
X-2125351Y-9349974D01*
X-2125351Y-9250026D01*
X-2161528Y-9213849D01*
X-2076472Y-9213849D01*
X-2112649Y-9250026D01*
X-2112649Y-9349974D01*
X-2041974Y-9420649D01*
X-1942026Y-9420649D01*
X-1871351Y-9349974D01*
X-1871351Y-9250026D01*
X-1907528Y-9213849D01*
X-1822472Y-9213849D01*
X-1858649Y-9250026D01*
X-1858649Y-9349974D01*
X-1787974Y-9420649D01*
X-1688026Y-9420649D01*
X-1617351Y-9349974D01*
X-1617351Y-9250026D01*
X-1653528Y-9213849D01*
X-1568472Y-9213849D01*
X-1604649Y-9250026D01*
X-1604649Y-9349974D01*
X-1533974Y-9420649D01*
X-1434026Y-9420649D01*
X-1363351Y-9349974D01*
X-1363351Y-9250026D01*
X-1399528Y-9213849D01*
X-1314472Y-9213849D01*
X-1350649Y-9250026D01*
X-1350649Y-9349974D01*
X-1279974Y-9420649D01*
X-1180026Y-9420649D01*
X-1109351Y-9349974D01*
X-1109351Y-9250026D01*
X-1145528Y-9213849D01*
X-1060472Y-9213849D01*
X-1096649Y-9250026D01*
X-1096649Y-9349974D01*
X-1025974Y-9420649D01*
X-926026Y-9420649D01*
X-855351Y-9349974D01*
X-855351Y-9250026D01*
X-891528Y-9213849D01*
X-806472Y-9213849D01*
X-842649Y-9250026D01*
X-842649Y-9349974D01*
X-771974Y-9420649D01*
X-672026Y-9420649D01*
X-601351Y-9349974D01*
X-601351Y-9250026D01*
X-637528Y-9213849D01*
X-552472Y-9213849D01*
X-588649Y-9250026D01*
X-588649Y-9349974D01*
X-517974Y-9420649D01*
X-418026Y-9420649D01*
X-347351Y-9349974D01*
X-347351Y-9250026D01*
X-383528Y-9213849D01*
X-298472Y-9213849D01*
X-334649Y-9250026D01*
X-334649Y-9349974D01*
X-263974Y-9420649D01*
X-164026Y-9420649D01*
X-93351Y-9349974D01*
X-93351Y-9250026D01*
X-129528Y-9213849D01*
X-44472Y-9213849D01*
X-80649Y-9250026D01*
X+1390651Y-9398000D02*
X+1390651Y-9426931D01*
X+1418871Y-9455151D01*
X+1298931Y-9455151D01*
X+1276349Y-9432569D01*
X+1276349Y-9420649D01*
X+1359974Y-9420649D01*
X+1390651Y-9389972D01*
X+1390651Y-9398000D01*
X-947319Y-9944101D02*
X-1054101Y-9944101D01*
X-1054101Y-9942823D01*
X-979177Y-9867899D01*
X-947319Y-9867899D01*
X-947319Y-9944101D01*
X+427351Y-9250026D02*
X+427351Y-9349974D01*
X+498026Y-9420649D01*
X+582571Y-9420649D01*
X+438151Y-9565069D01*
X+438151Y-10512069D01*
X+415569Y-10534651D01*
X-233431Y-10534651D01*
X-540031Y-10841251D01*
X-665756Y-10841251D01*
X-758749Y-10934244D01*
X-758749Y-11065756D01*
X-673904Y-11150601D01*
X-852177Y-11150601D01*
X-927101Y-11075677D01*
X-927101Y-10758177D01*
X-1106177Y-10579101D01*
X-1181101Y-10579101D01*
X-1181101Y-10314299D01*
X-1152681Y-10314299D01*
X-1152681Y-10288899D01*
X-1042677Y-10288899D01*
X-990601Y-10236823D01*
X-990601Y-10121899D01*
X-947319Y-10121899D01*
X-947319Y-10314299D01*
X-652681Y-10314299D01*
X-652681Y-10085701D01*
X-711101Y-10085701D01*
X-711101Y-10014299D01*
X-652681Y-10014299D01*
X-652681Y-9969849D01*
X-36931Y-9969849D01*
X+33251Y-10040031D01*
X+33251Y-10165756D01*
X+126244Y-10258749D01*
X+257756Y-10258749D01*
X+350749Y-10165756D01*
X+350749Y-10034244D01*
X+257756Y-9941251D01*
X+132031Y-9941251D01*
X+65029Y-9874249D01*
X+102953Y-9874249D01*
X+158749Y-9818453D01*
X+158749Y-9739547D01*
X+102953Y-9683751D01*
X+24047Y-9683751D01*
X+17697Y-9690101D01*
X-1052823Y-9690101D01*
X-1152681Y-9789959D01*
X-1152681Y-9785701D01*
X-1230151Y-9785701D01*
X-1230151Y-9708286D01*
X-1177569Y-9655704D01*
X+37076Y-9655704D01*
X+272131Y-9420649D01*
X+343974Y-9420649D01*
X+414649Y-9349974D01*
X+414649Y-9250026D01*
X+378472Y-9213849D01*
X+463528Y-9213849D01*
X+427351Y-9250026D01*
D13*
X-2500000Y-9300000D03*
D14*
X-2246000Y-9300000D03*
X-1992000Y-9300000D03*
X-1738000Y-9300000D03*
X-1484000Y-9300000D03*
X-1230000Y-9300000D03*
X-976000Y-9300000D03*
X-722000Y-9300000D03*
X-468000Y-9300000D03*
X-214000Y-9300000D03*
X+40000Y-9300000D03*
X+294000Y-9300000D03*
X+548000Y-9300000D03*
X+802000Y-9300000D03*
X+1056000Y-9300000D03*
X+1310000Y-9300000D03*
X+1564000Y-9300000D03*
X+1818000Y-9300000D03*
X+2072000Y-9300000D03*
X+2326000Y-9300000D03*
X+2326000Y-7776000D03*
X+2072000Y-7776000D03*
X+1818000Y-7776000D03*
X+1564000Y-7776000D03*
X+1310000Y-7776000D03*
X+1056000Y-7776000D03*
X+802000Y-7776000D03*
X+548000Y-7776000D03*
X+294000Y-7776000D03*
X+40000Y-7776000D03*
X-214000Y-7776000D03*
X-468000Y-7776000D03*
X-722000Y-7776000D03*
X-976000Y-7776000D03*
X-1230000Y-7776000D03*
X-1484000Y-7776000D03*
X-1738000Y-7776000D03*
X-1992000Y-7776000D03*
X-2246000Y-7776000D03*
X-2500000Y-7776000D03*
D15*
X-2299000Y-7075460D03*
X-2299000Y-6316000D03*
X-299000Y-6316000D03*
X-649000Y-7066000D03*
X+51000Y-7066000D03*
D16*
X+2408000Y-6246000D03*
X+2154000Y-6246000D03*
X+1900000Y-6246000D03*
X+1646000Y-6246000D03*
X+1392000Y-6246000D03*
X+1138000Y-6246000D03*
X+884000Y-6246000D03*
X+884000Y-6500000D03*
X+1138000Y-6500000D03*
X+1392000Y-6500000D03*
X+1646000Y-6500000D03*
X+1900000Y-6500000D03*
X+2154000Y-6500000D03*
X+2408000Y-6500000D03*
D17*
X+700000Y-10100000D03*
X+192000Y-10100000D03*
D16*
X-1238000Y-10900000D03*
X-1492000Y-10900000D03*
X-1746000Y-10900000D03*
X-2000000Y-10900000D03*
D18*
X+2200000Y-7000000D03*
X+3216000Y-7000000D03*
X+1629000Y-7449000D03*
X+613000Y-7449000D03*
X+1629000Y-7041000D03*
X+613000Y-7041000D03*
X+2200000Y-7400000D03*
X+3216000Y-7400000D03*
X+2200000Y-10200000D03*
X+1438000Y-10200000D03*
D19*
X-2100000Y-10303200D03*
X-2100000Y-10100000D03*
X-2100000Y-9896800D03*
D18*
X+2968000Y-8814000D03*
X+2968000Y-7798000D03*
D16*
X-2500000Y-10900000D03*
X-2754000Y-10900000D03*
D70*
X-800000Y-10200000D03*
X-800000Y-9900000D03*
X-1300000Y-10200000D03*
X-1300000Y-9900000D03*
D18*
X+2200000Y-9700000D03*
X+1438000Y-9700000D03*
D17*
X-600000Y-11000000D03*
X-100000Y-11000000D03*
X+500000Y-11000000D03*
X+1000000Y-11000000D03*
X+1500000Y-11000000D03*
X+2000000Y-11000000D03*
X+2500000Y-11000000D03*
X+2700000Y-10300000D03*
X+2700000Y-9700000D03*
X+3200000Y-10300000D03*
X+3200000Y-9700000D03*
X+3100000Y-11000000D03*
D71*
X-3100000Y-11320000D02*
X+3450000Y-11320000D01*
X+3450000Y-5930000D01*
X-3100000Y-5930000D01*
X-3100000Y-11320000D01*
M02*
